<svg xmlns="http://www.w3.org/2000/svg" width="1239.95" height="230.098" viewBox="0 0 1239.95 230.098">
  <g id="Group_21" data-name="Group 21" transform="translate(-14.954 -258.902)">
    <circle id="Ellipse_22" data-name="Ellipse 22" cx="11.63" cy="11.63" r="11.63" transform="translate(912.189 275.349) rotate(-45)" fill="#fff"/>
    <path id="Path_2224" data-name="Path 2224" d="M363.88,244.72H306.83a.94.94,0,0,1-.94-.95V240a1,1,0,0,1,.94-.95h57.05a1,1,0,0,1,.94.95v3.74a.94.94,0,0,1-.94.98Zm-56.1-1.89h55.15V241H307.78Z" transform="translate(-280.884 181.43)" fill="#fff"/>
    <path id="Path_2225" data-name="Path 2225" d="M363.88,250.85H306.83a.94.94,0,0,1-.94-.95v-3.74a1,1,0,0,1,.94-.95h57.05a1,1,0,0,1,.94.95v3.74a.94.94,0,0,1-.94.95ZM307.78,249h55.15v-1.9H307.78Z" transform="translate(-280.884 181.43)" fill="#fff"/>
    <path id="Path_2226" data-name="Path 2226" d="M363.88,257H306.83a.94.94,0,0,1-.94-.94v-3.75a1,1,0,0,1,.94-.95h57.05a1,1,0,0,1,.94.95V256a.94.94,0,0,1-.94,1Zm-56.1-1.89h55.15v-1.86H307.78Z" transform="translate(-280.884 181.43)" fill="#fff"/>
    <path id="Path_2227" data-name="Path 2227" d="M365.61,268H305.1a1,1,0,0,1-1-.94v-6a1,1,0,0,1,1-1h60.51a1,1,0,0,1,.94,1v6a.94.94,0,0,1-.94.94ZM306,266.13h58.63V262H306Z" transform="translate(-280.884 181.43)" fill="#fff"/>
    <path id="Path_2228" data-name="Path 2228" d="M320.29,278.51h-3.68a1,1,0,0,1-.95-.95V267.08a1,1,0,0,1,.95-.95h3.68a.94.94,0,0,1,.94.95v10.48A1,1,0,0,1,320.29,278.51Zm-2.74-1.89h1.8V268h-1.8Z" transform="translate(-280.884 181.43)" fill="#fff"/>
    <path id="Path_2229" data-name="Path 2229" d="M354.1,278.51h-3.68a1,1,0,0,1-.95-.95V267.08a1,1,0,0,1,.95-.95h3.68a1,1,0,0,1,.95.95v10.48A1,1,0,0,1,354.1,278.51Zm-2.74-1.89h1.8V268h-1.8Z" transform="translate(-280.884 181.43)" fill="#fff"/>
    <path id="Path_2230" data-name="Path 2230" d="M323,246.7h-2.75a.54.54,0,0,1-.54-.54v-2.39a.54.54,0,0,1,.54-.53H323a.54.54,0,0,1,.54.53v2.39A.54.54,0,0,1,323,246.7Zm-2.21-1.08h1.68v-1.31h-1.68Z" transform="translate(-280.884 181.43)" fill="#fff"/>
    <path id="Path_2231" data-name="Path 2231" d="M350.42,246.7h-2.76a.54.54,0,0,1-.54-.54v-2.39a.54.54,0,0,1,.54-.53h2.76a.54.54,0,0,1,.54.53v2.39a.54.54,0,0,1-.54.54Zm-2.22-1.08h1.68v-1.31H348.2Z" transform="translate(-280.884 181.43)" fill="#fff"/>
    <path id="Path_2232" data-name="Path 2232" d="M323,252.83h-2.75a.54.54,0,0,1-.54-.54v-2a.54.54,0,0,1,.54-.54H323a.54.54,0,0,1,.54.54v2A.54.54,0,0,1,323,252.83Zm-2.21-1.08h1.68v-.94h-1.68Z" transform="translate(-280.884 181.43)" fill="#fff"/>
    <path id="Path_2233" data-name="Path 2233" d="M350.42,252.83h-2.76a.54.54,0,0,1-.54-.54v-2a.54.54,0,0,1,.54-.54h2.76a.54.54,0,0,1,.54.54v2a.54.54,0,0,1-.54.54Zm-2.22-1.08h1.68v-.94H348.2Z" transform="translate(-280.884 181.43)" fill="#fff"/>
    <path id="Path_2234" data-name="Path 2234" d="M323,261.64h-2.75a.54.54,0,0,1-.54-.54V256a.54.54,0,0,1,.54-.54H323a.54.54,0,0,1,.54.54v5.06a.54.54,0,0,1-.54.58Zm-2.21-1.08h1.68v-4h-1.68Z" transform="translate(-280.884 181.43)" fill="#fff"/>
    <path id="Path_2235" data-name="Path 2235" d="M350.42,261.64h-2.76a.54.54,0,0,1-.54-.54V256a.54.54,0,0,1,.54-.54h2.76a.54.54,0,0,1,.54.54v5.06a.54.54,0,0,1-.54.58Zm-2.22-1.08h1.68v-4H348.2Z" transform="translate(-280.884 181.43)" fill="#fff"/>
    <path id="Path_2241" data-name="Path 2241" d="M424.235,283.68H316.2a.957.957,0,1,0,0,1.88H424.283a.957.957,0,1,0,0-1.88Z" transform="translate(-300.106 181.43)" fill="#fff"/>
    <path id="Path_2242" data-name="Path 2242" d="M461.48,283.68H413.86a.94.94,0,0,0,0,1.88h47.62a.94.94,0,0,0,0-1.88Z" transform="translate(-280.884 181.43)" fill="#fff"/>
    <path id="Path_2256" data-name="Path 2256" d="M402.71,280a13.11,13.11,0,1,1,13.11-13.11A13.11,13.11,0,0,1,402.71,280Zm0-24.34a11.215,11.215,0,1,1,0,.03Z" transform="translate(-280.884 181.43)" fill="#fff"/>
    <path id="Path_2257" data-name="Path 2257" d="M448.55,280a13.11,13.11,0,1,1,13.11-13.11A13.11,13.11,0,0,1,448.55,280Zm0-24.34a11.2,11.2,0,1,1,0,.03Z" transform="translate(-280.884 181.43)" fill="#fff"/>
    <path id="Path_2258" data-name="Path 2258" d="M402.71,267.86a.909.909,0,0,1-.45-.11.94.94,0,0,1-.38-1.28L414,244.06a.912.912,0,0,1,.11-.16l.11-.12a1,1,0,0,1,.6-.23h23.9a.94.94,0,0,1,.86.57l9.8,22.42a.943.943,0,0,1-.87,1.32h-23.9a.94.94,0,0,1-.86-.56l-9-20.66L403.5,267.37a.93.93,0,0,1-.79.49ZM425.27,266h21.84l-9-20.54H416.32Z" transform="translate(-280.884 181.43)" fill="#fff"/>
    <path id="Path_2259" data-name="Path 2259" d="M441.65,245.25h-8.2a1.65,1.65,0,0,1-1.65-1.65v-1.69a1.65,1.65,0,0,1,1.65-1.65h8.2a1.65,1.65,0,0,1,1.65,1.65v1.69a1.65,1.65,0,0,1-1.65,1.65Zm-8-1.88h7.72v-1.23h-7.72Z" transform="translate(-280.884 181.43)" fill="#fff"/>
    <path id="Path_2260" data-name="Path 2260" d="M414.87,245.44a.94.94,0,0,1-.94-.94v-4h-6.44a.95.95,0,0,1,0-1.89h7.38a1,1,0,0,1,.95,1v4.91a1,1,0,0,1-.95.92Z" transform="translate(-280.884 181.43)" fill="#fff"/>
    <g id="Group_20" data-name="Group 20" transform="translate(345.771 22.86)">
      <path id="Path_2261" data-name="Path 2261" d="M286.76,259.51a.94.94,0,0,1-.94-.94V209.39a.94.94,0,0,1,1.88,0v49.18A.94.94,0,0,1,286.76,259.51Z" transform="translate(579.464 182.62)" fill="#fff"/>
      <path id="Path_2262" data-name="Path 2262" d="M286.76,221.9a.93.93,0,0,1-.66-.27l-6.19-6.15a.944.944,0,1,1,1.33-1.34l6.19,6.15a.94.94,0,0,1,0,1.33A.92.92,0,0,1,286.76,221.9Z" transform="translate(579.464 182.62)" fill="#fff"/>
      <path id="Path_2263" data-name="Path 2263" d="M286.76,232.91a1.05,1.05,0,0,1-.53-.16,1,1,0,0,1-.25-1.31l7.41-11a.93.93,0,0,1,1.3-.25.94.94,0,0,1,.26,1.31l-7.41,11a.94.94,0,0,1-.78.41Z" transform="translate(579.464 182.62)" fill="#fff"/>
      <path id="Path_2264" data-name="Path 2264" d="M286.76,241.24a23.36,23.36,0,1,1,23.36-23.36,23.36,23.36,0,0,1-23.36,23.36Zm0-44.83a21.47,21.47,0,1,0,21.47,21.47,21.47,21.47,0,0,0-21.47-21.47Z" transform="translate(579.464 182.62)" fill="#fff"/>
    </g>
    <path id="Path_2269" data-name="Path 2269" d="M358.7,91.9a11.4,11.4,0,1,1-11.4-11.4,11.55,11.55,0,0,1,11.4,11.4.67.67,0,0,0,1.34,0,12.75,12.75,0,1,0-5.33,10.36A12.93,12.93,0,0,0,360,91.9a.67.67,0,0,0-1.3,0Z" transform="translate(579.464 182.62)" fill="#fff"/>
    <path id="Path_2272" data-name="Path 2272" d="M327,97.18l7-1.58c.84-.19.48-1.49-.36-1.3l-6.94,1.58c-.85.2-.49,1.5.36,1.3Z" transform="translate(579.464 182.62)" fill="#fff"/>
    <path id="Path_2273" data-name="Path 2273" d="M334,88.13l-7-1.58c-.85-.19-1.21,1.11-.36,1.3l6.91,1.58c.85.19,1.2-1.11.36-1.3Z" transform="translate(579.464 182.62)" fill="#fff"/>
    <path id="Path_2276" data-name="Path 2276" d="M331.39,105.42l5.47-4.37c.68-.54-.28-1.49-.95-1l-5.48,4.36c-.67.55.29,1.49,1,1Z" transform="translate(579.464 182.62)" fill="#fff"/>
    <path id="Path_2277" data-name="Path 2277" d="M367.93,95.88,361,94.3c-.84-.19-1.2,1.11-.36,1.3l6.94,1.58c.85.2,1.21-1.1.36-1.3Z" transform="translate(579.464 182.62)" fill="#fff"/>
    <path id="Path_2278" data-name="Path 2278" d="M357.45,100.82l5.77,4.6c.67.53,1.63-.41.95-1l-5.77-4.6C357.73,99.29,356.77,100.23,357.45,100.82Z" transform="translate(579.464 182.62)" fill="#fff"/>
    <path id="Path_2279" data-name="Path 2279" d="M361,89.43l6.94-1.58c.85-.19.49-1.49-.36-1.3l-6.94,1.58C359.8,88.33,360.16,89.63,361,89.43Z" transform="translate(579.464 182.62)" fill="#fff"/>
    <path id="Path_2281" data-name="Path 2281" d="M357,110.43c-1.05-2.19-2.11-4.37-3.16-6.55-.37-.79-1.54-.1-1.16.68l3.15,6.55C356.21,111.89,357.37,111.21,357,110.43Z" transform="translate(579.464 182.62)" fill="#fff"/>
    <path id="Path_2282" data-name="Path 2282" d="M346.63,105.61v7.23a.68.68,0,0,0,1.35,0v-7.23a.68.68,0,0,0-1.35,0Z" transform="translate(579.464 182.62)" fill="#fff"/>
    <path id="Path_2283" data-name="Path 2283" d="M338.78,111.11c1.06-2.08,2.11-4.17,3.16-6.25.39-.77-.77-1.45-1.16-.68l-3.16,6.25C337.23,111.2,338.39,111.88,338.78,111.11Z" transform="translate(579.464 182.62)" fill="#fff"/>
    <path id="Path_2296" data-name="Path 2296" d="M249.9,490.63A8.62,8.62,0,0,1,267,491a8.581,8.581,0,0,1,2.54-.38,8.75,8.75,0,0,1,0,17.5H250.29a8.75,8.75,0,0,1-.39-17.49Z" transform="translate(115.464 -191.31)" fill="none"/>
    <path id="Path_2297" data-name="Path 2297" d="M334.13,512.8a8.62,8.62,0,0,0-17.1.37,8.582,8.582,0,0,0-2.54-.38,8.75,8.75,0,0,0,0,17.5h19.25a8.75,8.75,0,0,0,.39-17.49Z" transform="translate(115.464 -191.31)" fill="none"/>
    <path id="Path_2298" data-name="Path 2298" d="M158.19,484.23a8.2,8.2,0,0,0-16.27.34,8.41,8.41,0,0,0-2.41-.35,8.32,8.32,0,0,0,0,16.64h18.31a8.32,8.32,0,0,0,.37-16.63Z" transform="translate(115.464 -191.31)" fill="none"/>
    <circle id="Ellipse_25" data-name="Ellipse 25" cx="11.43" cy="11.43" r="11.43" transform="translate(545.271 283.712) rotate(-80.78)" fill="none"/>
    <path id="Path_2303" data-name="Path 2303" d="M323.51,611.35v38.51H282.9V611.35l20.38-13.43Z" transform="translate(115.464 -191.31)" fill="none"/>
    <path id="Path_2304" data-name="Path 2304" d="M440.59,612.46v38.51H376.48V612.68Z" transform="translate(115.464 -191.31)" fill="none"/>
    <path id="Path_2305" data-name="Path 2305" d="M440.59,573.01v26.76H376.48V572.95L408.42,552Z" transform="translate(115.464 -191.31)" fill="none"/>
    <path id="Path_2306" data-name="Path 2306" d="M185.65,568.59v83.24H121.54V568.1l31.85-21.08Z" transform="translate(115.464 -191.31)" fill="none"/>
    <path id="Path_2307" data-name="Path 2307" d="M122.42,651.83H77.99V573.12h44.35Z" transform="translate(115.464 -191.31)" fill="none"/>
    <path id="Path_2308" data-name="Path 2308" d="M454.58,589.18Z" transform="translate(115.464 -191.31)" fill="#9ab239"/>
    <path id="Path_2310" data-name="Path 2310" d="M196.56,590.7Z" transform="translate(115.464 -191.31)" fill="#9ab239"/>
    <path id="Path_2311" data-name="Path 2311" d="M196.64,590.71c-3.65.38-8.43,29-6.49,36.61,1.7,6.67,6.49,7.91,6.49,7.91s4.79-1.24,6.48-7.91C205.06,619.68,200.29,591.09,196.64,590.71Z" transform="translate(115.464 -191.31)" fill="none"/>
    <circle id="Ellipse_26" data-name="Ellipse 26" cx="7.62" cy="7.62" r="7.62" transform="translate(313.203 454.321) rotate(-76.72)" fill="none"/>
    <path id="Path_2312" data-name="Path 2312" d="M329.46,611.75h24.82L345.9,584.1H260.51l-8.38,27.65h24.63l26.28-17.31Z" transform="translate(115.464 -191.31)" fill="none"/>
    <rect id="Rectangle_1266" data-name="Rectangle 1266" width="10.81" height="16.14" transform="translate(379.794 428.74)" fill="none"/>
    <rect id="Rectangle_1267" data-name="Rectangle 1267" width="10.81" height="16.14" transform="translate(447.174 428.74)" fill="none"/>
    <path id="Path_2315" data-name="Path 2315" d="M266.3,507.74H247.05a9.68,9.68,0,0,1-1.17-19.28,9.56,9.56,0,0,1,18.64.1,9.651,9.651,0,1,1,1.78,19.18Zm-11.11-24.82a7.74,7.74,0,0,0-7.61,6.55l-.11.75h-.77a7.82,7.82,0,0,0,.35,15.63H266.3a7.82,7.82,0,1,0,0-15.64,7.941,7.941,0,0,0-2.27.33l-1.07.33-.12-1.12a7.68,7.68,0,0,0-7.65-6.83Z" transform="translate(115.464 -191.31)" fill="#fff"/>
    <path id="Path_2316" data-name="Path 2316" d="M330.38,528.61H311.14a9.68,9.68,0,1,1,1.78-19.18,9.55,9.55,0,0,1,18.63-.1,9.68,9.68,0,0,1-1.17,19.28Zm-19.24-17.5a7.83,7.83,0,0,0,0,15.65h19.24a7.822,7.822,0,0,0,.36-15.64h-.77l-.11-.75a7.7,7.7,0,0,0-15.26.32l-.12,1.11-1.07-.32a8,8,0,0,0-2.27-.37Z" transform="translate(115.464 -191.31)" fill="#fff"/>
    <path id="Path_2317" data-name="Path 2317" d="M155.13,500.35H136.82A9.25,9.25,0,1,1,138.48,482a9.14,9.14,0,0,1,17.8-.08,9.25,9.25,0,0,1-1.15,18.43Zm-18.31-16.64a7.4,7.4,0,1,0,0,14.79h18.31a7.392,7.392,0,0,0,.33-14.78h-.76l-.12-.75a7.28,7.28,0,0,0-14.43.3l-.12,1.12L139,484A7.342,7.342,0,0,0,136.82,483.71Z" transform="translate(115.464 -191.31)" fill="#fff"/>
    <path id="Path_2376" data-name="Path 2376" d="M453,633.82h-.23c-.22-.06-5.36-1.46-7.18-8.62s2-32.11,5.72-36.89a2.74,2.74,0,0,1,1.21-1,.908.908,0,0,1,.41-.09h.15a1,1,0,0,1,.41.09,2.8,2.8,0,0,1,1.21,1c3.72,4.78,7.57,29.6,5.72,36.89s-7,8.56-7.18,8.62Zm0-44.68c-1,.71-2.9,5.69-4.52,15.27-1.49,8.84-1.93,17-1.09,20.3,1.34,5.28,4.7,6.87,5.62,7.21.93-.34,4.27-1.92,5.61-7.21.84-3.31.4-11.46-1.09-20.3C455.93,594.83,454,589.85,453,589.14Z" transform="translate(115.464 -191.31)" fill="none"/>
    <g id="Group_6" data-name="Group 6" transform="translate(-50 90)">
      <path id="Path_2377" data-name="Path 2377" d="M194.9,652.48a.93.93,0,0,1-.93-.92V607.34a.93.93,0,0,1,1.86,0v44.22a.93.93,0,0,1-.93.92Z" transform="translate(165.464 -281.31)" fill="#fff"/>
      <path id="Path_2378" data-name="Path 2378" d="M194.9,616.48a1,1,0,0,1-.66-.27l-3.62-3.62a.93.93,0,1,1,1.31-1.31l3.63,3.62a.93.93,0,0,1,0,1.31A1,1,0,0,1,194.9,616.48Z" transform="translate(165.464 -281.31)" fill="#fff"/>
      <path id="Path_2379" data-name="Path 2379" d="M194.9,623.24a1,1,0,0,1-.53-.17.93.93,0,0,1-.23-1.29l4-5.71a.93.93,0,0,1,1.52,1.06l-4,5.71a.93.93,0,0,1-.76.4Z" transform="translate(165.464 -281.31)" fill="#fff"/>
      <path id="Path_2380" data-name="Path 2380" d="M195,635.13h-.23c-.22-.06-5.34-1.46-7.15-8.59s2-32,5.69-36.72a2.77,2.77,0,0,1,1.21-1,.91.91,0,0,1,.41-.09h.15a1,1,0,0,1,.41.09,2.77,2.77,0,0,1,1.21,1c3.7,4.76,7.53,29.47,5.69,36.72s-6.94,8.53-7.15,8.59Zm0-44.47c-.81.66-2.75,4.87-4.5,15.2-1.48,8.79-1.92,16.91-1.08,20.2,1.33,5.25,4.68,6.83,5.59,7.17.92-.35,4.25-1.91,5.58-7.17.84-3.29.4-11.41-1.08-20.2-1.75-10.33-3.7-14.54-4.51-15.2Z" transform="translate(165.464 -281.31)" fill="#fff"/>
      <path id="Path_2383" data-name="Path 2383" d="M348.68,650.08H254.3a.79.79,0,0,1-.8-.79v-105a.8.8,0,0,1,1.59,0V648.51h92.8l.16-104.22a.8.8,0,0,1,.8-.79h0a.79.79,0,0,1,.79.8l-.16,105A.8.8,0,0,1,348.68,650.08Z" transform="translate(165.464 -281.31)" fill="#fff"/>
      <path id="Path_2389" data-name="Path 2389" d="M370.75,650.21H349.89a.92.92,0,0,1-.93-.92V629.78a.93.93,0,0,1,.93-.93h20.86a.93.93,0,0,1,.92.93v19.51A.92.92,0,0,1,370.75,650.21Zm-19.94-1.85h19V630.71h-19Z" transform="translate(165.464 -281.31)" fill="#fff"/>
      <path id="Path_2390" data-name="Path 2390" d="M352.53,650.21a.92.92,0,0,1-.93-.92V629.78a.93.93,0,1,1,1.85,0v19.51A.92.92,0,0,1,352.53,650.21Z" transform="translate(165.464 -281.31)" fill="#fff"/>
      <path id="Path_2391" data-name="Path 2391" d="M355.6,650.21a.92.92,0,0,1-.92-.92V629.78a.93.93,0,1,1,1.85,0v19.51a.92.92,0,0,1-.93.92Z" transform="translate(165.464 -281.31)" fill="#fff"/>
      <path id="Path_2392" data-name="Path 2392" d="M358.68,650.21a.92.92,0,0,1-.92-.92V629.78a.93.93,0,1,1,1.85,0v19.51a.93.93,0,0,1-.93.92Z" transform="translate(165.464 -281.31)" fill="#fff"/>
      <path id="Path_2393" data-name="Path 2393" d="M361.76,650.21a.93.93,0,0,1-.93-.92V629.78a.93.93,0,0,1,1.86,0v19.51a.93.93,0,0,1-.93.92Z" transform="translate(165.464 -281.31)" fill="#fff"/>
      <path id="Path_2394" data-name="Path 2394" d="M364.84,650.21a.93.93,0,0,1-.93-.92V629.78a.93.93,0,0,1,1.86,0v19.51a.93.93,0,0,1-.93.92Z" transform="translate(165.464 -281.31)" fill="#fff"/>
      <path id="Path_2395" data-name="Path 2395" d="M367.92,650.21a.93.93,0,0,1-.93-.92V629.78a.93.93,0,0,1,1.86,0v19.51a.93.93,0,0,1-.93.92Z" transform="translate(165.464 -281.31)" fill="#fff"/>
      <path id="Path_2396" data-name="Path 2396" d="M205.28,658.55a.93.93,0,0,1-.93-.93V636.07a.93.93,0,0,1,1.86,0v21.55A.93.93,0,0,1,205.28,658.55Z" transform="translate(165.464 -281.31)" fill="#fff"/>
      <path id="Path_2397" data-name="Path 2397" d="M205.28,640.93a.91.91,0,0,1-.65-.27l-2.11-2.09a.93.93,0,1,1,1.31-1.31l2.1,2.09a.92.92,0,0,1,0,1.31A.93.93,0,0,1,205.28,640.93Z" transform="translate(165.464 -281.31)" fill="#fff"/>
      <path id="Path_2398" data-name="Path 2398" d="M205.28,644.67a.91.91,0,0,1-.52-.16.93.93,0,0,1-.25-1.28l2.52-3.74a.92.92,0,0,1,1.28-.26.94.94,0,0,1,.26,1.29l-2.52,3.74a.92.92,0,0,1-.77.41Z" transform="translate(165.464 -281.31)" fill="#fff"/>
      <path id="Path_2399" data-name="Path 2399" d="M205.28,647.5a8.54,8.54,0,1,1,8.54-8.54,8.54,8.54,0,0,1-8.54,8.54Zm0-15.23a6.7,6.7,0,1,0,4.761,1.966,6.69,6.69,0,0,0-4.761-1.966Z" transform="translate(165.464 -281.31)" fill="#fff"/>
      <rect id="Rectangle_1291" data-name="Rectangle 1291" width="96" height="2" rx="1" transform="translate(419 262)" fill="#fff"/>
    </g>
    <g id="Group_5" data-name="Group 5" transform="translate(-50 90)">
      <path id="Path_2341" data-name="Path 2341" d="M326.72,656.69H211a.93.93,0,0,0,0,1.86H326.72a.93.93,0,1,0,0-1.86Z" transform="translate(165.464 -281.31)" fill="#fff"/>
      <path id="Path_2342" data-name="Path 2342" d="M198.46,656.69H74a.93.93,0,1,0,0,1.86H198.46a.93.93,0,1,0,0-1.86Z" transform="translate(165.464 -281.31)" fill="#fff"/>
      <path id="Path_2343" data-name="Path 2343" d="M517.966,656.69H434.912c-1.625,0-2.942.416-2.942.93s1.317.93,2.942.93h83.054c1.625,0,2.943-.416,2.943-.93S519.591,656.69,517.966,656.69Z" transform="translate(165.464 -281.31)" fill="#fff"/>
      <path id="Path_2344" data-name="Path 2344" d="M416.27,656.69H365.32a.93.93,0,0,0,0,1.86h50.95a.93.93,0,1,0,0-1.86Z" transform="translate(165.464 -281.31)" fill="#fff"/>
      <path id="Path_2401" data-name="Path 2401" d="M183.89,650.66H119.78a.92.92,0,0,1-.657-.266,1.687,1.687,0,0,1-.273-.654l1.85-.94H183l-.038-137.7h1.888V649.74a.92.92,0,0,1-.96.92Z" transform="translate(165.464 -281.31)" fill="#fff"/>
      <path id="Path_2418" data-name="Path 2418" d="M119.78,650.66H75.35a.93.93,0,0,1-.93-.92V512a.93.93,0,0,1,1.86,0V648.78h43.5a.93.93,0,0,1,0,1.85Z" transform="translate(165.464 -281.31)" fill="#fff"/>
      <path id="Path_2419" data-name="Path 2419" d="M127.21,650.66H87.73a.93.93,0,0,1-.93-.92V602.29a.93.93,0,0,1,.93-.92h39.48a.92.92,0,0,1,.92.92v47.45A.92.92,0,0,1,127.21,650.66Zm-38.55-1.85h37.62V603.22H88.66Z" transform="translate(187.464 -281.31)" fill="#fff"/>
      <rect id="Rectangle_1292" data-name="Rectangle 1292" width="110" height="2" transform="translate(240 229)" fill="#fff"/>
    </g>
    <g id="Group_19" data-name="Group 19" transform="translate(5881.864 -3947.185)">
      <path id="Path_2657" data-name="Path 2657" d="M259.663,1029.828H239.1a10.343,10.343,0,0,1,0-20.681,10.216,10.216,0,0,1,1.9.178,10.208,10.208,0,0,1,19.915-.1,10.343,10.343,0,0,1-1.251,20.605Zm-20.567-18.7a8.359,8.359,0,0,0,0,16.717h20.567a8.361,8.361,0,1,0,.377-16.717l-.82-.032-.119-.809a8.224,8.224,0,0,0-16.313.35l-.129,1.186-1.143-.345A8.324,8.324,0,0,0,239.1,1011.132Z" transform="translate(-5312.263 3222.226)" fill="#fff"/>
      <path id="Path_2658" data-name="Path 2658" d="M701.078,970.758H680.511a10.343,10.343,0,0,1-1.246-20.605,10.208,10.208,0,0,1,19.915.1,10.2,10.2,0,0,1,1.9-.178,10.343,10.343,0,0,1,0,20.681Zm-11.864-26.526a8.272,8.272,0,0,0-8.132,7.01l-.124.809-.814.032a8.361,8.361,0,0,0,.378,16.717h20.567a8.359,8.359,0,1,0-2.411-16.383l-1.149.345-.124-1.186a8.208,8.208,0,0,0-8.2-7.345Z" transform="translate(-5863.551 3348.244)" fill="#fff"/>
      <path id="Path_2659" data-name="Path 2659" d="M836.778,1261.033h-87.43a5.9,5.9,0,0,1-6.164-5.883,5.818,5.818,0,0,1,5.172-5.813v-28.753a5.873,5.873,0,0,1,0-11.659v-28.193a6.164,6.164,0,0,1,.992-12.252h87.43a6.164,6.164,0,0,1,.992,12.252v28.193a5.872,5.872,0,0,1,0,11.659v28.754a5.819,5.819,0,0,1,5.172,5.813A5.9,5.9,0,0,1,836.778,1261.033Zm-87.43-90.569a4.185,4.185,0,0,0,0,8.364.992.992,0,0,1,.992.992v30.026a.987.987,0,0,1-.992.987,3.931,3.931,0,1,0,0,7.846.987.987,0,0,1,.992.987v30.592a.992.992,0,0,1-.992.992,3.908,3.908,0,1,0,0,7.8h87.43a3.909,3.909,0,1,0,0-7.8.992.992,0,0,1-.992-.992v-30.592a.992.992,0,0,1,.992-.987,3.931,3.931,0,1,0,0-7.846.992.992,0,0,1-.992-.987v-30.026a.992.992,0,0,1,.992-.992,4.185,4.185,0,1,0,0-8.364Z" transform="translate(-5549.158 3145.206)" fill="#fff"/>
      <path id="Path_2660" data-name="Path 2660" d="M784.443,1219.9H766.232a.992.992,0,0,1-.992-.992v-26.7a.992.992,0,0,1,.992-.992h18.211a.992.992,0,0,1,.992.992v26.7A.992.992,0,0,1,784.443,1219.9Zm-17.219-1.984h16.221V1193.2H767.224Z" transform="translate(-5559.334 3134.728)" fill="#fff"/>
      <path id="Path_2661" data-name="Path 2661" d="M836.183,1219.9H817.972a.992.992,0,0,1-.992-.992v-26.7a.992.992,0,0,1,.992-.992h18.211a.992.992,0,0,1,.992.992v26.7A.992.992,0,0,1,836.183,1219.9Zm-17.219-1.984h16.226V1193.2H818.964Z" transform="translate(-5583.173 3134.728)" fill="#fff"/>
      <path id="Path_2662" data-name="Path 2662" d="M887.923,1219.9H869.712a.992.992,0,0,1-.992-.992v-26.7a.992.992,0,0,1,.992-.992h18.211a.992.992,0,0,1,.992.992v26.7A.992.992,0,0,1,887.923,1219.9Zm-17.219-1.984h16.232V1193.2H870.7Z" transform="translate(-5607.012 3134.728)" fill="#fff"/>
      <path id="Path_2663" data-name="Path 2663" d="M784.443,1304.938H766.232c-.548,0-.992-.624-.992-1.394v-37.5a1.708,1.708,0,0,1,.291-.983.869.869,0,0,1,.7-.4h18.211a.869.869,0,0,1,.7.4,1.708,1.708,0,0,1,.291.983v37.5C785.435,1304.313,784.991,1304.938,784.443,1304.938Zm-17.219-2.787h16.221v-34.711H767.224Z" transform="translate(-5559.334 3100.892)" fill="#fff"/>
      <path id="Path_2664" data-name="Path 2664" d="M836.192,1305.525H817.981c-.544-.009-.982-.639-.982-1.414v-38.045a1.751,1.751,0,0,1,.291-1,.867.867,0,0,1,.7-.409H836.2a.867.867,0,0,1,.7.409,1.752,1.752,0,0,1,.291,1v38.045a1.759,1.759,0,0,1-.294,1.005.868.868,0,0,1-.709.409Zm-17.219-2.828H835.2V1267.48H818.974Z" transform="translate(-5583.182 3100.892)" fill="#fff"/>
      <path id="Path_2665" data-name="Path 2665" d="M887.923,1293.338H869.712a.992.992,0,0,1-.992-.992v-26.7a.987.987,0,0,1,.992-.987h18.211a.987.987,0,0,1,.992.987v26.7A.992.992,0,0,1,887.923,1293.338Zm-17.219-1.985h16.232v-24.714H870.7Z" transform="translate(-5607.012 3100.892)" fill="#fff"/>
      <rect id="Rectangle_1283" data-name="Rectangle 1283" width="1.79" height="5.878" transform="translate(-4774.891 4308.8)" fill="#fff"/>
      <rect id="Rectangle_1284" data-name="Rectangle 1284" width="3.769" height="7.857" rx="1.84" transform="translate(-4775.884 4307.813)" fill="#fff"/>
      <rect id="Rectangle_1285" data-name="Rectangle 1285" width="1.79" height="5.878" transform="translate(-4739.089 4308.8)" fill="#fff"/>
      <rect id="Rectangle_1286" data-name="Rectangle 1286" width="3.769" height="7.857" rx="1.84" transform="translate(-4740.082 4307.813)" fill="#fff"/>
      <path id="Path_2666" data-name="Path 2666" d="M838.727,1145.088h-53.64a.987.987,0,0,1-.987-.992v-16.944a.987.987,0,0,1,.987-.992h53.64a.987.987,0,0,1,.987.992v16.96a.987.987,0,0,1-.987.976Zm-52.648-1.979h51.656v-14.981H786.079Z" transform="translate(-5568.024 3164.704)" fill="#fff"/>
      <path id="Path_2673" data-name="Path 2673" d="M505.759,1350.818H296.66a.992.992,0,1,0,0,1.979h209.1a.992.992,0,1,0,0-1.979Z" transform="translate(-5342.951 3061.197)" fill="#fff"/>
      <path id="Path_2674" data-name="Path 2674" d="M922.04,1350.818H852.43a2.2,2.2,0,0,0-1.567.473.663.663,0,0,0,0,1.034,2.2,2.2,0,0,0,1.567.473h69.61c.883-.038,1.567-.47,1.567-.99S922.923,1350.856,922.04,1350.818Z" transform="translate(-5598.67 3061.197)" fill="#fff"/>
      <path id="Path_2872" data-name="Path 2872" d="M884.956,1350.818H851.488a.782.782,0,0,0-.753.473,1.182,1.182,0,0,0,0,1.034.782.782,0,0,0,.753.473h33.468a1.027,1.027,0,0,0,0-1.979Z" transform="translate(-5512.67 3061.197)" fill="#fff"/>
      <path id="Path_2675" data-name="Path 2675" d="M773.336,1350.818H705.281a.9.9,0,0,0-.852.473,1.061,1.061,0,0,0,0,1.034.9.9,0,0,0,.852.473h68.055a.9.9,0,0,0,.852-.473,1.06,1.06,0,0,0,0-1.034.9.9,0,0,0-.852-.473Z" transform="translate(-5525.662 3061.197)" fill="#fff"/>
      <path id="Path_2676" data-name="Path 2676" d="M231.379,1350.818H180.744a.882.882,0,0,0-.837.473,1.077,1.077,0,0,0,0,1.034.882.882,0,0,0,.837.473h50.635a.882.882,0,0,0,.837-.473,1.077,1.077,0,0,0,0-1.034.882.882,0,0,0-.837-.473Z" transform="translate(-5284.386 3061.197)" fill="#fff"/>
      <path id="Path_2677" data-name="Path 2677" d="M506.82,1276.988H431.377a.992.992,0,0,1-.987-.992v-71.059a.987.987,0,0,1,.987-.987H506.82a.992.992,0,0,1,.992.987V1276A1,1,0,0,1,506.82,1276.988ZM432.369,1275h73.458v-69.074H432.369Z" transform="translate(-5405.056 3128.863)" fill="#fff"/>
      <path id="Path_2678" data-name="Path 2678" d="M460.323,1308.253H448.152a1,1,0,0,1-.992-.992V1272.8a.992.992,0,0,1,.992-.987h12.182a.992.992,0,0,1,.992.987v34.464A1,1,0,0,1,460.323,1308.253Zm-11.19-1.984h10.2v-32.48h-10.2Z" transform="translate(-5412.783 3097.597)" fill="#fff"/>
      <path id="Path_2679" data-name="Path 2679" d="M502.209,1308.253H490.032a.992.992,0,0,1-.992-.992V1272.8a.987.987,0,0,1,.992-.987h12.177a.987.987,0,0,1,.992.987v34.464a.992.992,0,0,1-.992.992Zm-11.184-1.984h10.2v-32.48h-10.2Z" transform="translate(-5432.079 3097.597)" fill="#fff"/>
      <path id="Path_2680" data-name="Path 2680" d="M544.109,1308.253H531.927a.992.992,0,0,1-.987-.992V1272.8a.987.987,0,0,1,.987-.987h12.182a.987.987,0,0,1,.992.987v34.464a.992.992,0,0,1-.992.992Zm-11.19-1.984h10.2v-32.48h-10.2Z" transform="translate(-5451.384 3097.597)" fill="#fff"/>
      <path id="Path_2685" data-name="Path 2685" d="M369.007,1222.664H304.932a.966.966,0,0,1-.992-.938l.156-120.43h11.1s-1.005-19.5,21.647-19.281,22.159,19.386,22.159,19.386H370v120.326A.966.966,0,0,1,369.007,1222.664Zm-63.094-1.87h62.1V1103.275H357.436s1.194-18.866-20.588-19.449-20.26,19.449-20.26,19.449H305.924Z" transform="translate(-5346.796 3183.166)" fill="#fff"/>
      <path id="Path_2689" data-name="Path 2689" d="M400.393,1160.017h-11a.992.992,0,0,1-.992-.992v-11.653c0-3.586,6.585-7.134,6.585-7.134s6.4,3.548,6.4,7.134v11.659a1,1,0,0,1-.992.987Zm-10.014-1.985H399.4V1148a4.514,4.514,0,0,0-2.209-4.039,25.471,25.471,0,0,1-2.206-1.692s-1.676,1.264-2.4,1.692a4.514,4.514,0,0,0-2.209,4.039Z" transform="translate(-5385.709 3154.632)" fill="#fff"/>
      <path id="Path_2878" data-name="Path 2878" d="M400.393,1160.017h-11a.992.992,0,0,1-.992-.992v-11.653c0-3.586,6.585-7.134,6.585-7.134s6.4,3.548,6.4,7.134v11.659a1,1,0,0,1-.992.987Zm-10.014-1.985H399.4V1148a4.514,4.514,0,0,0-2.209-4.039,25.471,25.471,0,0,1-2.206-1.692s-1.676,1.264-2.4,1.692a4.514,4.514,0,0,0-2.209,4.039Z" transform="translate(-5385.709 3178.198)" fill="#fff"/>
      <path id="Path_2881" data-name="Path 2881" d="M400.393,1160.017h-11a.992.992,0,0,1-.992-.992v-11.653c0-3.586,6.585-7.134,6.585-7.134s6.4,3.548,6.4,7.134v11.659a1,1,0,0,1-.992.987Zm-10.014-1.985H399.4V1148a4.514,4.514,0,0,0-2.209-4.039,25.471,25.471,0,0,1-2.206-1.692s-1.676,1.264-2.4,1.692a4.514,4.514,0,0,0-2.209,4.039Z" transform="translate(-5385.709 3201.763)" fill="#fff"/>
      <path id="Path_2874" data-name="Path 2874" d="M400.393,1160.017h-11a.992.992,0,0,1-.992-.992v-11.653c0-3.586,6.585-7.134,6.585-7.134s6.4,3.548,6.4,7.134v11.659a1,1,0,0,1-.992.987Zm-10.014-1.985H399.4V1148a4.514,4.514,0,0,0-2.209-4.039,25.471,25.471,0,0,1-2.206-1.692s-1.676,1.264-2.4,1.692a4.514,4.514,0,0,0-2.209,4.039Z" transform="translate(-5404.385 3154.632)" fill="#fff"/>
      <path id="Path_2877" data-name="Path 2877" d="M400.393,1160.017h-11a.992.992,0,0,1-.992-.992v-11.653c0-3.586,6.585-7.134,6.585-7.134s6.4,3.548,6.4,7.134v11.659a1,1,0,0,1-.992.987Zm-10.014-1.985H399.4V1148a4.514,4.514,0,0,0-2.209-4.039,25.471,25.471,0,0,1-2.206-1.692s-1.676,1.264-2.4,1.692a4.514,4.514,0,0,0-2.209,4.039Z" transform="translate(-5404.385 3178.198)" fill="#fff"/>
      <path id="Path_2880" data-name="Path 2880" d="M400.393,1160.017h-11a.992.992,0,0,1-.992-.992v-11.653c0-3.586,6.585-7.134,6.585-7.134s6.4,3.548,6.4,7.134v11.659a1,1,0,0,1-.992.987Zm-10.014-1.985H399.4V1148a4.514,4.514,0,0,0-2.209-4.039,25.471,25.471,0,0,1-2.206-1.692s-1.676,1.264-2.4,1.692a4.514,4.514,0,0,0-2.209,4.039Z" transform="translate(-5404.385 3201.763)" fill="#fff"/>
      <path id="Path_2875" data-name="Path 2875" d="M400.393,1160.017h-11a.992.992,0,0,1-.992-.992v-11.653c0-3.586,6.585-7.134,6.585-7.134s6.4,3.548,6.4,7.134v11.659a1,1,0,0,1-.992.987Zm-10.014-1.985H399.4V1148a4.514,4.514,0,0,0-2.209-4.039,25.471,25.471,0,0,1-2.206-1.692s-1.676,1.264-2.4,1.692a4.514,4.514,0,0,0-2.209,4.039Z" transform="translate(-5423.06 3154.632)" fill="#fff"/>
      <path id="Path_2885" data-name="Path 2885" d="M396.827,1151.908H389.1c-.385,0-.7-.188-.7-.421v-5.545h9.124v5.548c0,.231-.314.417-.7.418Zm-7.036-.841h6.339v-4.251h-6.339Z" transform="translate(-5461.225 3162.741)" fill="#fff"/>
      <path id="Path_2876" data-name="Path 2876" d="M400.393,1160.017h-11a.992.992,0,0,1-.992-.992v-11.653c0-3.586,6.585-7.134,6.585-7.134s6.4,3.548,6.4,7.134v11.659a1,1,0,0,1-.992.987Zm-10.014-1.985H399.4V1148a4.514,4.514,0,0,0-2.209-4.039,25.471,25.471,0,0,1-2.206-1.692s-1.676,1.264-2.4,1.692a4.514,4.514,0,0,0-2.209,4.039Z" transform="translate(-5423.06 3178.198)" fill="#fff"/>
      <path id="Path_2879" data-name="Path 2879" d="M400.393,1160.017h-11a.992.992,0,0,1-.992-.992v-11.653c0-3.586,6.585-7.134,6.585-7.134s6.4,3.548,6.4,7.134v11.659a1,1,0,0,1-.992.987Zm-10.014-1.985H399.4V1148a4.514,4.514,0,0,0-2.209-4.039,25.471,25.471,0,0,1-2.206-1.692s-1.676,1.264-2.4,1.692a4.514,4.514,0,0,0-2.209,4.039Z" transform="translate(-5423.06 3201.763)" fill="#fff"/>
      <path id="Path_2701" data-name="Path 2701" d="M629.853,1253.572h-50.9a1,1,0,0,1-.992-.992v-99.688a1,1,0,0,1,.992-.992h50.9a.992.992,0,0,1,.992.992v99.688A.992.992,0,0,1,629.853,1253.572Zm-49.909-1.984h48.922v-97.7H579.944Z" transform="translate(-5473.047 3152.845)" fill="#fff"/>
      <path id="Path_2702" data-name="Path 2702" d="M629.734,1144.5H618.02a1.28,1.28,0,0,1-1.28-1.28v-18.756a7.137,7.137,0,1,1,14.273,0v18.749a1.28,1.28,0,0,1-1.28,1.287Zm-10.434-2.553h9.161v-17.483a4.584,4.584,0,0,0-9.161,0Z" transform="translate(-5503.046 3194.412)" fill="#fff"/>
      <path id="Path_2886" data-name="Path 2886" d="M629.734,1144.5H618.02a1.28,1.28,0,0,1-1.28-1.28v-18.756a7.137,7.137,0,1,1,14.273,0v18.749a1.28,1.28,0,0,1-1.28,1.287Zm-10.434-2.553h9.161v-17.483a4.584,4.584,0,0,0-9.161,0Z" transform="translate(-5692.14 3258.733)" fill="#fff"/>
      <path id="Path_2887" data-name="Path 2887" d="M635.644,1156.862H618.6A1.862,1.862,0,0,1,616.74,1155v-27.287a10.383,10.383,0,1,1,20.766,0v27.277a1.862,1.862,0,0,1-1.862,1.872Zm-15.18-3.714h13.328v-25.435a6.669,6.669,0,0,0-13.328,0Z" transform="translate(-5636.949 3248.238)" fill="#fff"/>
      <path id="Path_2884" data-name="Path 2884" d="M629.734,1144.5H618.02a1.28,1.28,0,0,1-1.28-1.28v-18.756a7.137,7.137,0,1,1,14.273,0v18.749a1.28,1.28,0,0,1-1.28,1.287Zm-10.434-2.553h9.161v-17.483a4.584,4.584,0,0,0-9.161,0Z" transform="translate(-5503.046 3224.905)" fill="#fff"/>
      <path id="Path_2882" data-name="Path 2882" d="M629.734,1144.5H618.02a1.28,1.28,0,0,1-1.28-1.28v-18.756a7.137,7.137,0,1,1,14.273,0v18.749a1.28,1.28,0,0,1-1.28,1.287Zm-10.434-2.553h9.161v-17.483a4.584,4.584,0,0,0-9.161,0Z" transform="translate(-5481.997 3194.412)" fill="#fff"/>
      <path id="Path_2883" data-name="Path 2883" d="M629.734,1144.5H618.02a1.28,1.28,0,0,1-1.28-1.28v-18.756a7.137,7.137,0,1,1,14.273,0v18.749a1.28,1.28,0,0,1-1.28,1.287Zm-10.434-2.553h9.161v-17.483a4.584,4.584,0,0,0-9.161,0Z" transform="translate(-5481.997 3224.905)" fill="#fff"/>
      <path id="Path_2723" data-name="Path 2723" d="M627.125,1320.074H613.762a1,1,0,0,1-.992-.992v-15.374a7.674,7.674,0,0,1,15.342,0v15.375A.992.992,0,0,1,627.125,1320.074Zm-12.371-1.984h11.378v-14.382a5.689,5.689,0,0,0-11.378,0Z" transform="translate(-5489.085 3086.343)" fill="#fff"/>
      <path id="Path_2724" data-name="Path 2724" d="M187.637,1285.041a.987.987,0,0,1-.987-.987v-58.779a.992.992,0,0,1,1.979,0v58.779a.987.987,0,0,1-.992.987Z" transform="translate(-5721.169 3120.455)" fill="#fff"/>
      <path id="Path_2725" data-name="Path 2725" d="M183.547,1242.409a.966.966,0,0,1-.7-.291l-4.816-4.81a.992.992,0,0,1,1.4-1.4l4.81,4.81a.992.992,0,0,1-.7,1.693Z" transform="translate(-5717.079 3115.254)" fill="#fff"/>
      <path id="Path_2726" data-name="Path 2726" d="M187.659,1256.65a.95.95,0,0,1-.539-.178.981.981,0,0,1-.259-1.348l5.274-7.587a.987.987,0,1,1,1.618,1.127l-5.274,7.539A.976.976,0,0,1,187.659,1256.65Z" transform="translate(-5721.19 3109.987)" fill="#fff"/>
      <path id="Path_2727" data-name="Path 2727" d="M180.021,1241.882a.972.972,0,0,1-.248-.032c-.28-.07-6.962-1.9-9.329-11.233-1.332-5.252-.334-16.625,1.046-25.523s3.8-19.624,6.471-23.059a3.382,3.382,0,0,1,1.51-1.192.93.93,0,0,1,.453-.113h.194a.987.987,0,0,1,.453.108,3.436,3.436,0,0,1,1.51,1.2c2.669,3.435,5.1,14.166,6.471,23.059s2.373,20.271,1.041,25.523c-2.367,9.335-9.043,11.163-9.329,11.233A.953.953,0,0,1,180.021,1241.882Zm0-59.119a2.776,2.776,0,0,0-.733.825c-4.427,6.7-9.087,38.013-6.924,46.538,1.839,7.237,6.53,9.324,7.663,9.707,1.154-.41,5.808-2.464,7.652-9.707,2.157-8.526-2.5-39.841-6.924-46.538a2.7,2.7,0,0,0-.733-.825Z" transform="translate(-5713.413 3140.555)" fill="#fff"/>
      <path id="Path_2728" data-name="Path 2728" d="M722.152,1297.32a1,1,0,0,1-.992-.992V1249a.992.992,0,0,1,1.984,0v47.326A.992.992,0,0,1,722.152,1297.32Z" transform="translate(-5552.025 3115.684)" fill="#fff"/>
      <path id="Path_2729" data-name="Path 2729" d="M718.844,1262.994a.986.986,0,0,1-.7-.291l-3.872-3.877a.989.989,0,1,1,1.4-1.4l3.877,3.877a.992.992,0,0,1-.7,1.693Z" transform="translate(-5548.717 3111.48)" fill="#fff"/>
      <path id="Path_2730" data-name="Path 2730" d="M722.153,1274.416a.965.965,0,0,1-.566-.178.987.987,0,0,1-.248-1.375l4.249-6.115a.992.992,0,1,1,1.618,1.132l-4.249,6.11A.987.987,0,0,1,722.153,1274.416Z" transform="translate(-5552.026 3107.284)" fill="#fff"/>
      <path id="Path_2731" data-name="Path 2731" d="M715.993,1262.607a.951.951,0,0,1-.248-.032c-.232-.059-5.716-1.558-7.652-9.167-1.974-7.76,2.125-34.2,6.088-39.291a2.9,2.9,0,0,1,1.294-1.025,1,1,0,0,1,.437-.1h.156a1.025,1.025,0,0,1,.442.1,2.93,2.93,0,0,1,1.294,1.025c3.958,5.091,8.057,31.531,6.088,39.291-1.936,7.631-7.42,9.13-7.652,9.167A.99.99,0,0,1,715.993,1262.607Zm0-47.584c-.868.7-2.955,5.209-4.821,16.264-1.585,9.4-2.055,18.092-1.159,21.614,1.424,5.625,5.01,7.312,5.98,7.674.992-.361,4.551-2.038,5.98-7.674.89-3.521.426-12.209-1.165-21.614C718.943,1220.232,716.856,1215.719,715.993,1215.023Z" transform="translate(-5545.769 3131.819)" fill="#fff"/>
      <path id="Path_2736" data-name="Path 2736" d="M259.222,1322.986h-44.5c-.548,0-.992-.68-.992-1.519l.094-74.874h6.939s-.207-16.54,16.153-16.45,15.478,16.45,15.478,16.45h7.651s.165-.016.164,74.874c0,.835-.441,1.514-.987,1.519Zm-43.508-3.037H258.23V1248.5h-7.6s1.569-15.911-13.713-16.4-14.72,16.4-14.72,16.4h-6.482Z" transform="translate(-5305.232 3082.865)" fill="#fff"/>
      <text id="سوپرمارکت" transform="translate(-4775.864 4302.185)" fill="#fff" font-size="9" font-family="SegoeUI-Bold, Segoe UI" font-weight="700"><tspan x="0" y="0">سوپرمارکت</tspan></text>
      <text id="بانک" transform="translate(-4948.864 4356.185)" fill="#fff" font-size="14" font-family="SegoeUI-Bold, Segoe UI" font-weight="700"><tspan x="0" y="0">بانک</tspan></text>
    </g>
    <path id="Path_2208" data-name="Path 2208" d="M237.2,242.45c-15.31,0-27.3,7.51-34.36,18.82h68C265.51,249.92,253.17,242.45,237.2,242.45Z" transform="translate(465.464 181.62)" fill="#fff"/>
    <path id="Path_2211" data-name="Path 2211" d="M304.09,292.36h-14.2a.94.94,0,0,1-.94-.85,22.319,22.319,0,0,0-2.84-8.1c-3.14-5.26-8-7.92-14.49-7.92-6.31,0-11.07,2.66-14.14,7.91a22.67,22.67,0,0,0-2.78,8.11,1,1,0,0,1-.94.85H230.89a1,1,0,0,1-.94-.85,22,22,0,0,0-2.86-8c-3.14-5.2-8-7.84-14.41-7.84s-11.08,2.65-14.2,7.88a22.39,22.39,0,0,0-2.83,8,1,1,0,0,1-.94.84H184.22a7.505,7.505,0,0,1-4.71-1.66,4,4,0,0,1-1.19-2.94,4.33,4.33,0,0,1,2.79-4.15,7.838,7.838,0,0,1,1.75-.49,59.81,59.81,0,0,1,15.21-32.77,48.82,48.82,0,0,1,36.55-15.87c16,0,26.29,6.38,32.13,11.72a39.76,39.76,0,0,1,8.78,11.38c14.29,4.17,21.54,13.06,25.12,19.81a38.121,38.121,0,0,1,4.38,14,1,1,0,0,1-.26.71A.92.92,0,0,1,304.09,292.36Zm-13.39-1.89H303a38.51,38.51,0,0,0-4.09-12.3c-5-9.4-13.19-15.77-24.34-18.92a.94.94,0,0,1-.61-.54,37.33,37.33,0,0,0-8.58-11.2c-5.59-5.1-15.46-11.17-30.79-11.17a47,47,0,0,0-35.17,15.27,57.79,57.79,0,0,0-14.8,32.45,1,1,0,0,1-.93.84c-.36,0-3.51.15-3.51,2.83a2.14,2.14,0,0,0,.62,1.6,5.5,5.5,0,0,0,3.38,1.11h9.69a24.86,24.86,0,0,1,3-7.88,17.52,17.52,0,0,1,15.82-8.8c8.91,0,13.65,4.79,16.06,8.81a24.43,24.43,0,0,1,3,7.9H253a24.45,24.45,0,0,1,2.87-8c2.36-4.07,7-8.91,15.8-8.91,9,0,13.73,4.84,16.14,8.9a24.34,24.34,0,0,1,2.89,8.01Z" transform="translate(465.464 181.62)" fill="#fff"/>
    <path id="Path_2212" data-name="Path 2212" d="M212.71,307.38a14.66,14.66,0,1,1,14.66-14.66A14.66,14.66,0,0,1,212.71,307.38Zm0-27.43a12.745,12.745,0,1,1,0,.05Z" transform="translate(465.464 181.62)" fill="#fff"/>
    <path id="Path_2213" data-name="Path 2213" d="M272,307.38a14.66,14.66,0,1,1,14.66-14.66A14.66,14.66,0,0,1,272,307.38ZM272,280a12.77,12.77,0,1,0,12.77,12.77A12.77,12.77,0,0,0,272,280Z" transform="translate(465.464 181.62)" fill="#fff"/>
    <path id="Path_2214" data-name="Path 2214" d="M268.3,259.79h-68a.94.94,0,0,1-.8-1.45,40.38,40.38,0,0,1,14.42-14,41.35,41.35,0,0,1,20.74-5.3A42.86,42.86,0,0,1,256,244.36a31.66,31.66,0,0,1,13.17,14.09.95.95,0,0,1-.85,1.34Zm-66.21-1.89h64.68c-5.63-10.63-17.49-16.9-32.06-16.9a39.58,39.58,0,0,0-19.81,5,38.34,38.34,0,0,0-12.81,11.9Z" transform="translate(465.464 181.62)" fill="#fff"/>
    <path id="Path_2894" data-name="Path 2894" d="M410.393,1180.017h-31a.992.992,0,0,1-.992-.992v-31.653c0-2.166,5.262-5.532,10.7-8.076,2.886-1.692,5.886-6.057,5.886-6.057a24.591,24.591,0,0,0,6.664,6.548c4.754,2.518,9.736,5.625,9.736,7.586v31.659a1,1,0,0,1-.992.987Zm-30.014-1.985H409.4V1148c.057-1.649-9.05-6.527-11.418-8.217-1.272-.659-3-3.363-3-3.363a10.685,10.685,0,0,1-3.182,3.363c-6.227,3.1-11.482,6.568-11.425,8.217Z" transform="translate(-149.501 -722.418)" fill="#fff"/>
  </g>
</svg>
