<svg xmlns="http://www.w3.org/2000/svg" width="81.562" height="81.562" viewBox="0 0 81.562 81.562">
  <g id="Group_334" data-name="Group 334" transform="translate(0 0)">
    <g id="Group_325" data-name="Group 325" transform="translate(17.317 0.006)">
      <path id="Path_378" data-name="Path 378" d="M166.472,100.583c-.822-1.984-3.442-3.227-6.735-2.776-2.964.4-7.437,1.1-9.446-3.759-.759-1.833-1.318-5.2,2.743-8.174-1.18-3.227,1.5-6.034,2.724-7.325h0a2.488,2.488,0,0,0,.561-2.447,2.488,2.488,0,0,0,2.132,1.329h.008c1.778.042,5.652.132,7.106,3.253,4.972-.772,6.96,2.005,7.718,3.839,2.015,4.865-1.639,7.528-4.022,9.338C166.625,95.868,165.65,98.6,166.472,100.583Zm-2.286-5.517a11.661,11.661,0,0,1,3.314-3.6c2.666-1.973,4.116-3.216,3.044-5.806-1.221-2.947-4.409-2.119-5.613-1.806l-1.238.272-.6-1.458c-.777-1.876-1.964-2.2-4.694-2.262l-.29-.007-.2.21c-1.889,1.979-2.5,3.042-1.719,4.918l.6,1.458-1.066.683c-1.069.627-3.909,2.3-2.689,5.242,1.073,2.592,2.98,2.442,6.258,1.955a11.663,11.663,0,0,1,4.894.2Z" transform="translate(-149.754 -76.103)" fill="#00a58f"/>
    </g>
    <g id="Group_326" data-name="Group 326" transform="translate(0 17.333)">
      <path id="Path_379" data-name="Path 379" d="M100.585,166.467c-1.984-.822-4.715.153-6.727,2.806-1.81,2.385-4.473,6.034-9.338,4.022-1.833-.759-4.611-2.748-3.839-7.718-3.121-1.452-3.212-5.332-3.253-7.106v-.008a2.488,2.488,0,0,0-1.329-2.131,2.488,2.488,0,0,0,2.447-.561h0c1.287-1.228,4.09-3.9,7.325-2.724,2.971-4.061,6.34-3.508,8.174-2.743,4.865,2.015,4.165,6.483,3.759,9.446C97.359,163.025,98.6,165.645,100.585,166.467Zm-5.517-2.286a11.663,11.663,0,0,1-.2-4.89c.487-3.278.637-5.185-1.955-6.258-2.947-1.221-4.615,1.619-5.242,2.689l-.683,1.066-1.458-.6c-1.876-.777-2.94-.17-4.918,1.719l-.21.2c0,.093,0,.189.007.29.063,2.735.386,3.916,2.262,4.694l1.458.6-.272,1.238c-.313,1.2-1.142,4.388,1.806,5.613,2.592,1.073,3.834-.38,5.806-3.044a11.662,11.662,0,0,1,3.6-3.316Z" transform="translate(-76.099 -149.765)" fill="#00a58f"/>
    </g>
    <g id="Group_327" data-name="Group 327" transform="translate(0.005 40.133)">
      <path id="Path_380" data-name="Path 380" d="M100.583,254.157c-1.984.822-3.227,3.442-2.776,6.735.4,2.964,1.1,7.437-3.759,9.447-1.833.759-5.2,1.316-8.174-2.743-3.227,1.18-6.034-1.5-7.325-2.724h0a2.488,2.488,0,0,0-2.447-.561,2.486,2.486,0,0,0,1.329-2.131v-.008c.042-1.778.132-5.652,3.253-7.106-.772-4.972,2.005-6.96,3.839-7.718,4.865-2.015,7.528,1.639,9.338,4.022C95.869,254,98.6,254.979,100.583,254.157Zm-5.517,2.286a11.661,11.661,0,0,1-3.6-3.314c-1.973-2.666-3.216-4.117-5.806-3.044-2.947,1.221-2.119,4.409-1.806,5.613l.272,1.238-1.458.6c-1.876.777-2.2,1.965-2.262,4.694,0,.1,0,.2-.007.29l.21.2c1.979,1.889,3.042,2.5,4.918,1.719l1.458-.6.683,1.066c.627,1.069,2.3,3.909,5.242,2.688,2.592-1.073,2.442-2.98,1.955-6.258a11.664,11.664,0,0,1,.2-4.894Z" transform="translate(-76.103 -246.762)" fill="#00a58f"/>
    </g>
    <g id="Group_328" data-name="Group 328" transform="translate(17.333 57.077)">
      <path id="Path_381" data-name="Path 381" d="M166.467,318.868c-.822,1.984.153,4.715,2.806,6.727,2.385,1.81,6.034,4.473,4.022,9.338-.759,1.833-2.748,4.611-7.718,3.839-1.452,3.121-5.332,3.212-7.106,3.253h-.008a2.488,2.488,0,0,0-2.131,1.329,2.487,2.487,0,0,0-.561-2.447h0c-1.228-1.287-3.9-4.09-2.724-7.325-4.061-2.971-3.508-6.34-2.743-8.174,2.015-4.865,6.483-4.165,9.446-3.759C163.025,322.094,165.645,320.854,166.467,318.868Zm-2.284,5.517a11.662,11.662,0,0,1-4.89.2c-3.278-.487-5.185-.637-6.258,1.955-1.221,2.947,1.619,4.615,2.688,5.242l1.066.683-.6,1.458c-.777,1.876-.17,2.94,1.719,4.911l.2.21.29-.007c2.735-.063,3.916-.386,4.694-2.262l.6-1.458,1.238.272c1.2.313,4.388,1.142,5.613-1.806,1.073-2.592-.38-3.834-3.044-5.806A11.661,11.661,0,0,1,164.183,324.385Z" transform="translate(-149.765 -318.868)" fill="#00a58f"/>
    </g>
    <g id="Group_329" data-name="Group 329" transform="translate(40.133 57.077)">
      <path id="Path_382" data-name="Path 382" d="M254.157,318.868c.822,1.984,3.442,3.227,6.735,2.775,2.964-.4,7.437-1.1,9.447,3.759.759,1.833,1.316,5.2-2.743,8.174,1.18,3.227-1.5,6.034-2.724,7.325h0a2.488,2.488,0,0,0-.561,2.447,2.488,2.488,0,0,0-2.131-1.329h-.008c-1.778-.042-5.652-.132-7.106-3.253-4.972.772-6.96-2.005-7.718-3.839-2.015-4.865,1.639-7.528,4.022-9.338C254,323.583,254.979,320.854,254.157,318.868Zm2.286,5.517a11.662,11.662,0,0,1-3.314,3.6c-2.666,1.973-4.117,3.216-3.044,5.806,1.221,2.947,4.409,2.119,5.613,1.806l1.238-.272.6,1.458c.777,1.876,1.965,2.2,4.694,2.262l.29.007.2-.21c1.889-1.978,2.5-3.042,1.719-4.911l-.6-1.458,1.066-.683c1.069-.627,3.909-2.3,2.688-5.242-1.073-2.592-2.98-2.441-6.258-1.955a11.662,11.662,0,0,1-4.894-.208Z" transform="translate(-246.762 -318.868)" fill="#00a58f"/>
    </g>
    <g id="Group_330" data-name="Group 330" transform="translate(57.076 40.116)">
      <path id="Path_383" data-name="Path 383" d="M318.868,254.162c1.984.822,4.715-.153,6.727-2.806,1.81-2.385,4.473-6.034,9.338-4.022,1.833.759,4.611,2.747,3.839,7.718,3.121,1.452,3.212,5.332,3.253,7.106v.008a2.488,2.488,0,0,0,1.329,2.131,2.488,2.488,0,0,0-2.447.561h0c-1.287,1.228-4.09,3.9-7.325,2.724-2.971,4.061-6.34,3.508-8.174,2.743-4.865-2.015-4.165-6.483-3.759-9.446C322.094,257.6,320.854,254.984,318.868,254.162Zm5.517,2.286a11.662,11.662,0,0,1,.2,4.89c-.487,3.278-.637,5.185,1.955,6.258,2.947,1.221,4.615-1.619,5.242-2.689l.683-1.066,1.458.6c1.876.777,2.94.17,4.911-1.719l.211-.2c0-.093,0-.189-.007-.29-.063-2.735-.386-3.916-2.262-4.694l-1.458-.6.272-1.238c.313-1.2,1.142-4.388-1.806-5.613-2.592-1.074-3.833.38-5.806,3.044a11.662,11.662,0,0,1-3.6,3.316Z" transform="translate(-318.868 -246.75)" fill="#00a58f"/>
    </g>
    <g id="Group_331" data-name="Group 331" transform="translate(57.076 17.317)">
      <path id="Path_384" data-name="Path 384" d="M318.868,166.472c1.984-.822,3.227-3.442,2.775-6.735-.4-2.964-1.1-7.437,3.759-9.446,1.833-.759,5.2-1.318,8.174,2.743,3.227-1.18,6.034,1.5,7.325,2.724h0a2.488,2.488,0,0,0,2.447.561,2.488,2.488,0,0,0-1.329,2.132v.008c-.042,1.778-.132,5.652-3.253,7.106.772,4.972-2.005,6.96-3.839,7.718-4.865,2.015-7.528-1.639-9.338-4.022C323.583,166.625,320.854,165.65,318.868,166.472Zm5.517-2.286a11.66,11.66,0,0,1,3.6,3.314c1.973,2.666,3.216,4.116,5.806,3.044,2.947-1.221,2.119-4.409,1.806-5.613l-.272-1.238,1.458-.6c1.876-.777,2.2-1.964,2.262-4.694,0-.1,0-.2.007-.29l-.21-.2c-1.978-1.889-3.042-2.5-4.911-1.719l-1.458.6-.683-1.066c-.627-1.069-2.3-3.909-5.242-2.689-2.592,1.073-2.441,2.98-1.955,6.258a11.662,11.662,0,0,1-.208,4.894Z" transform="translate(-318.868 -149.754)" fill="#00a58f"/>
    </g>
    <g id="Group_332" data-name="Group 332" transform="translate(40.115 0)">
      <path id="Path_385" data-name="Path 385" d="M254.162,100.585c.822-1.984-.153-4.715-2.806-6.727-2.385-1.81-6.034-4.473-4.022-9.338.759-1.833,2.747-4.611,7.718-3.839,1.452-3.121,5.332-3.212,7.106-3.253h.008A2.486,2.486,0,0,0,264.3,76.1a2.488,2.488,0,0,0,.561,2.447h0c1.228,1.287,3.9,4.09,2.724,7.325,4.061,2.971,3.508,6.34,2.743,8.174-2.015,4.865-6.483,4.165-9.446,3.759C257.6,97.359,254.984,98.6,254.162,100.585Zm2.286-5.517a11.664,11.664,0,0,1,4.89-.2c3.278.487,5.185.637,6.258-1.955,1.221-2.947-1.619-4.615-2.689-5.242l-1.066-.683.6-1.458c.777-1.876.17-2.94-1.719-4.918l-.2-.21-.29.007c-2.735.063-3.916.386-4.694,2.262l-.6,1.458-1.238-.272c-1.2-.313-4.388-1.142-5.613,1.806-1.074,2.592.38,3.834,3.044,5.806a11.662,11.662,0,0,1,3.316,3.6Z" transform="translate(-246.75 -76.099)" fill="#00a58f"/>
    </g>
  </g>
</svg>
