<svg xmlns="http://www.w3.org/2000/svg" width="137" height="197.126" viewBox="0 0 137 197.126">
  <g id="Group_216" data-name="Group 216" transform="translate(-353.5 -440.064)">
    <g id="Group_83" data-name="Group 83" transform="translate(3 186.19)">
      <text id="_۱۳۷" data-name="۱۳۷" transform="translate(389 440)" fill="#dfdfdf" font-size="42" font-family="SegoeUI, Segoe UI"><tspan x="0" y="0">۱۳۷</tspan></text>
      <g id="Group_334" data-name="Group 334" transform="translate(350.5 253.874)">
        <g id="Group_325" data-name="Group 325" transform="translate(29.087 0.009)">
          <path id="Path_378" data-name="Path 378" d="M177.835,117.222c-1.381-3.333-5.782-5.421-11.313-4.662-4.978.679-12.492,1.855-15.867-6.314-1.275-3.078-2.213-8.74,4.608-13.729-1.982-5.421,2.513-10.135,4.575-12.3h0a4.179,4.179,0,0,0,.943-4.111,4.179,4.179,0,0,0,3.58,2.232h.014c2.986.071,9.494.222,11.936,5.463,8.351-1.3,11.69,3.368,12.963,6.449,3.385,8.172-2.753,12.645-6.755,15.686C178.092,109.3,176.454,113.887,177.835,117.222ZM174,107.955a19.587,19.587,0,0,1,5.567-6.05c4.478-3.314,6.913-5.4,5.112-9.753-2.051-4.95-7.406-3.559-9.428-3.033l-2.079.457-1.013-2.449c-1.306-3.151-3.3-3.693-7.884-3.8l-.488-.012-.337.354c-3.172,3.323-4.193,5.11-2.887,8.261l1.013,2.449-1.791,1.148c-1.8,1.054-6.566,3.856-4.516,8.806,1.8,4.353,5.006,4.1,10.512,3.283a19.591,19.591,0,0,1,8.221.339Z" transform="translate(-149.754 -76.103)" fill="#dfdfdf"/>
        </g>
        <g id="Group_326" data-name="Group 326" transform="translate(0 29.114)">
          <path id="Path_379" data-name="Path 379" d="M117.228,177.82c-3.333-1.381-7.919.257-11.3,4.714-3.04,4.007-7.514,10.135-15.686,6.755-3.078-1.275-7.745-4.615-6.449-12.963-5.242-2.439-5.4-8.956-5.463-11.936v-.014A4.179,4.179,0,0,0,76.1,160.8a4.179,4.179,0,0,0,4.111-.943h0c2.161-2.062,6.871-6.557,12.3-4.575,4.99-6.821,10.649-5.892,13.729-4.608,8.172,3.385,7,10.889,6.314,15.867C111.809,172.038,113.893,176.439,117.228,177.82Zm-9.268-3.839a19.591,19.591,0,0,1-.342-8.214c.818-5.506,1.07-8.709-3.283-10.512-4.95-2.051-7.752,2.72-8.806,4.516l-1.148,1.791-2.449-1.013c-3.151-1.306-4.938-.285-8.261,2.887l-.354.337c0,.156,0,.318.012.488.106,4.594.648,6.578,3.8,7.884l2.449,1.014-.457,2.079c-.526,2.015-1.919,7.37,3.033,9.428,4.353,1.8,6.439-.639,9.753-5.112a19.589,19.589,0,0,1,6.053-5.569Z" transform="translate(-76.099 -149.765)" fill="#dfdfdf"/>
        </g>
        <g id="Group_327" data-name="Group 327" transform="translate(0.01 67.411)">
          <path id="Path_380" data-name="Path 380" d="M117.222,259.182c-3.333,1.381-5.421,5.782-4.662,11.313.679,4.978,1.855,12.492-6.314,15.867-3.078,1.275-8.74,2.211-13.729-4.608-5.421,1.982-10.135-2.513-12.3-4.575h0a4.179,4.179,0,0,0-4.111-.943,4.176,4.176,0,0,0,2.232-3.58v-.014c.071-2.986.222-9.494,5.463-11.936-1.3-8.351,3.368-11.69,6.449-12.963,8.172-3.385,12.645,2.753,15.686,6.755C109.3,258.926,113.887,260.564,117.222,259.182Zm-9.268,3.839a19.587,19.587,0,0,1-6.05-5.567c-3.314-4.478-5.4-6.915-9.753-5.112-4.95,2.051-3.559,7.406-3.033,9.428l.457,2.079-2.449,1.013c-3.151,1.306-3.693,3.3-3.8,7.884,0,.17,0,.332-.012.488l.354.337c3.323,3.173,5.11,4.193,8.261,2.887l2.449-1.013,1.148,1.791c1.054,1.8,3.856,6.566,8.806,4.516,4.353-1.8,4.1-5.006,3.283-10.512a19.591,19.591,0,0,1,.339-8.221Z" transform="translate(-76.103 -246.763)" fill="#dfdfdf"/>
        </g>
        <g id="Group_328" data-name="Group 328" transform="translate(29.114 95.871)">
          <path id="Path_381" data-name="Path 381" d="M177.82,318.868c-1.381,3.333.257,7.919,4.714,11.3,4.007,3.041,10.135,7.514,6.755,15.686-1.275,3.078-4.615,7.745-12.963,6.449-2.439,5.242-8.956,5.4-11.936,5.463h-.014A4.179,4.179,0,0,0,160.8,360a4.178,4.178,0,0,0-.943-4.11h0c-2.062-2.161-6.557-6.871-4.575-12.3-6.821-4.99-5.892-10.649-4.608-13.729,3.385-8.172,10.889-7,15.867-6.314C172.038,324.287,176.439,322.2,177.82,318.868Zm-3.837,9.267a19.588,19.588,0,0,1-8.214.342c-5.506-.818-8.709-1.07-10.512,3.283-2.051,4.95,2.72,7.752,4.516,8.806l1.791,1.148-1.013,2.449c-1.306,3.151-.285,4.938,2.887,8.249l.337.353.488-.012c4.594-.106,6.578-.648,7.884-3.8l1.013-2.449,2.079.457c2.015.526,7.37,1.919,9.428-3.033,1.8-4.353-.639-6.439-5.112-9.753A19.588,19.588,0,0,1,173.983,328.135Z" transform="translate(-149.765 -318.868)" fill="#dfdfdf"/>
        </g>
        <g id="Group_329" data-name="Group 329" transform="translate(67.412 95.871)">
          <path id="Path_382" data-name="Path 382" d="M259.182,318.868c1.381,3.333,5.782,5.421,11.313,4.662,4.978-.679,12.492-1.855,15.867,6.314,1.275,3.078,2.211,8.74-4.608,13.729,1.982,5.421-2.513,10.135-4.575,12.3h0a4.179,4.179,0,0,0-.943,4.111,4.179,4.179,0,0,0-3.58-2.232h-.014c-2.986-.071-9.494-.222-11.936-5.463-8.351,1.3-11.69-3.368-12.963-6.448-3.385-8.172,2.753-12.645,6.755-15.686C258.926,326.787,260.564,322.2,259.182,318.868Zm3.839,9.267a19.588,19.588,0,0,1-5.567,6.048c-4.478,3.314-6.915,5.4-5.112,9.753,2.051,4.949,7.406,3.559,9.428,3.033l2.079-.457,1.013,2.449c1.306,3.151,3.3,3.693,7.884,3.8l.488.012.337-.353c3.173-3.323,4.193-5.11,2.887-8.249l-1.013-2.449,1.791-1.148c1.8-1.054,6.566-3.856,4.516-8.806-1.8-4.353-5.006-4.1-10.512-3.283a19.59,19.59,0,0,1-8.221-.349Z" transform="translate(-246.763 -318.868)" fill="#dfdfdf"/>
        </g>
        <g id="Group_330" data-name="Group 330" transform="translate(95.871 67.382)">
          <path id="Path_383" data-name="Path 383" d="M318.868,259.2c3.333,1.381,7.919-.257,11.3-4.714,3.041-4.007,7.514-10.135,15.686-6.755,3.078,1.275,7.745,4.615,6.449,12.963,5.242,2.439,5.4,8.956,5.463,11.936v.014a4.179,4.179,0,0,0,2.232,3.58,4.179,4.179,0,0,0-4.11.943h0c-2.161,2.062-6.871,6.557-12.3,4.575-4.99,6.821-10.649,5.892-13.729,4.608-8.172-3.385-7-10.889-6.314-15.867C324.287,264.981,322.2,260.58,318.868,259.2Zm9.267,3.839a19.589,19.589,0,0,1,.342,8.214c-.818,5.506-1.07,8.709,3.283,10.512,4.95,2.051,7.752-2.72,8.805-4.516l1.148-1.791,2.449,1.013c3.151,1.306,4.938.285,8.249-2.887l.354-.337c0-.156,0-.318-.012-.488-.106-4.594-.648-6.578-3.8-7.884l-2.449-1.013.457-2.079c.526-2.015,1.918-7.37-3.033-9.428-4.353-1.8-6.439.639-9.753,5.112a19.588,19.588,0,0,1-6.041,5.569Z" transform="translate(-318.868 -246.75)" fill="#dfdfdf"/>
        </g>
        <g id="Group_331" data-name="Group 331" transform="translate(95.871 29.087)">
          <path id="Path_384" data-name="Path 384" d="M318.868,177.835c3.333-1.381,5.421-5.782,4.662-11.313-.679-4.978-1.855-12.492,6.314-15.867,3.078-1.275,8.74-2.213,13.729,4.608,5.421-1.982,10.135,2.513,12.3,4.575h0a4.179,4.179,0,0,0,4.111.943,4.179,4.179,0,0,0-2.232,3.58v.014c-.071,2.986-.222,9.494-5.463,11.936,1.3,8.351-3.368,11.69-6.448,12.963-8.172,3.385-12.645-2.753-15.686-6.755C326.787,178.092,322.2,176.454,318.868,177.835ZM328.135,174a19.586,19.586,0,0,1,6.048,5.567c3.314,4.478,5.4,6.913,9.753,5.112,4.949-2.051,3.559-7.406,3.033-9.428l-.457-2.079,2.449-1.013c3.151-1.306,3.693-3.3,3.8-7.884,0-.17,0-.332.012-.488l-.353-.337c-3.323-3.172-5.11-4.193-8.249-2.887l-2.449,1.013-1.148-1.791c-1.054-1.8-3.856-6.566-8.806-4.516-4.353,1.8-4.1,5.006-3.283,10.512a19.59,19.59,0,0,1-.349,8.221Z" transform="translate(-318.868 -149.754)" fill="#dfdfdf"/>
        </g>
        <g id="Group_332" data-name="Group 332" transform="translate(67.382)">
          <path id="Path_385" data-name="Path 385" d="M259.2,117.228c1.381-3.333-.257-7.919-4.714-11.3-4.007-3.04-10.135-7.514-6.755-15.686,1.275-3.078,4.615-7.745,12.963-6.449,2.439-5.242,8.956-5.4,11.936-5.463h.014a4.177,4.177,0,0,0,3.58-2.232,4.179,4.179,0,0,0,.943,4.111h0c2.062,2.161,6.557,6.871,4.575,12.3,6.821,4.99,5.892,10.649,4.608,13.729-3.385,8.172-10.889,7-15.867,6.314C264.981,111.809,260.58,113.893,259.2,117.228Zm3.839-9.268a19.591,19.591,0,0,1,8.214-.342c5.506.818,8.709,1.07,10.512-3.283,2.051-4.95-2.72-7.752-4.516-8.806l-1.791-1.148,1.013-2.449c1.306-3.151.285-4.938-2.887-8.261l-.337-.354-.488.012c-4.594.106-6.578.648-7.884,3.8l-1.013,2.449-2.079-.457c-2.015-.526-7.37-1.919-9.428,3.033-1.8,4.353.639,6.439,5.112,9.753a19.589,19.589,0,0,1,5.569,6.053Z" transform="translate(-246.75 -76.099)" fill="#dfdfdf"/>
        </g>
      </g>
    </g>
  </g>
</svg>
