<svg xmlns="http://www.w3.org/2000/svg" width="19" height="23" viewBox="0 0 19 23">
  <path id="پیگیری_گزارش" data-name="پیگیری گزارش" d="M16.625,23H2.375A2.341,2.341,0,0,1,0,20.7V2.3A2.341,2.341,0,0,1,2.375,0h8.313a1.193,1.193,0,0,1,.84.337l7.124,6.9A1.128,1.128,0,0,1,19,8.05V20.7A2.341,2.341,0,0,1,16.625,23ZM2.375,2.3V20.7h12.57L11.9,17.749a4.8,4.8,0,0,1-2.4.651H9.448a4.791,4.791,0,0,1-4.632-3.424A4.594,4.594,0,0,1,7.049,9.721a4.924,4.924,0,0,1,2.4-.622,4.848,4.848,0,0,1,3.418,1.383,4.542,4.542,0,0,1,.713,5.642l3.048,2.953V8.526L10.2,2.3ZM9.5,11.5a2.3,2.3,0,1,0,2.375,2.3A2.341,2.341,0,0,0,9.5,11.5Z" fill="#00a58f"/>
</svg>
