<svg xmlns="http://www.w3.org/2000/svg" xmlns:xlink="http://www.w3.org/1999/xlink" width="26" height="26" viewBox="0 0 26 26">
  <defs>
    <clipPath id="clip-path">
      <rect id="Rectangle_4206" data-name="Rectangle 4206" width="26" height="26" transform="translate(958 846)" fill="none"/>
    </clipPath>
  </defs>
  <g id="Mask_Group_2" data-name="Mask Group 2" transform="translate(-958 -846)" clip-path="url(#clip-path)">
    <path id="Icon_zocial-call" data-name="Icon zocial-call" d="M18.205,3.584a1.344,1.344,0,0,0-.342-.73L15.126.117q-.32-.274-.479.091L12.435,4.36a.6.6,0,0,0,.114.707l1,1a1.135,1.135,0,0,1,.319.707,3.482,3.482,0,0,1-.707,1.756,15,15,0,0,1-1.391,1.825l-.707.729c-.213.213-.486.475-.822.787a13.77,13.77,0,0,1-1.653,1.232,3.7,3.7,0,0,1-1.813.764.993.993,0,0,1-.73-.3L4.862,12.388a.5.5,0,0,0-.684-.091L.186,14.646A.333.333,0,0,0,0,14.885a.291.291,0,0,0,.091.262l2.737,2.737a1.34,1.34,0,0,0,.729.341,5.518,5.518,0,0,0,2.521-.308,11.406,11.406,0,0,0,2.6-1.243q1.2-.775,2.224-1.573t1.642-1.368l.593-.571q.228-.228.6-.627t1.313-1.573A22.907,22.907,0,0,0,16.677,8.67a13.372,13.372,0,0,0,1.186-2.543A5.41,5.41,0,0,0,18.205,3.584Z" transform="matrix(0.951, -0.309, 0.309, 0.951, 959.878, 853.045)" fill="#00a58f"/>
  </g>
</svg>
