<svg xmlns="http://www.w3.org/2000/svg" width="15.635" height="22.748" viewBox="0 0 15.635 22.748">
  <path id="Icon_awesome-question" data-name="Icon awesome-question" d="M9.638,0A8.608,8.608,0,0,0,1.992,4.044,1.067,1.067,0,0,0,2.222,5.5L4.138,6.958a1.066,1.066,0,0,0,1.477-.184c1.113-1.394,1.938-2.2,3.677-2.2,1.367,0,3.057.88,3.057,2.205,0,1-.827,1.517-2.177,2.273-1.574.882-3.656,1.98-3.656,4.727v.435a1.066,1.066,0,0,0,1.066,1.066H10.8a1.066,1.066,0,0,0,1.066-1.066v-.256c0-1.9,5.566-1.984,5.566-7.137C17.435,2.944,13.409,0,9.638,0ZM9.193,16.593a3.078,3.078,0,1,0,3.078,3.078A3.081,3.081,0,0,0,9.193,16.593Z" transform="translate(-1.8)" fill="#00a58f"/>
</svg>
