<svg xmlns="http://www.w3.org/2000/svg" xmlns:xlink="http://www.w3.org/1999/xlink" width="334" height="227" viewBox="0 0 334 227">
  <defs>
    <clipPath id="clip-path">
      <rect id="Rectangle_1303" data-name="Rectangle 1303" width="334" height="227" transform="translate(666 531)" fill="none"/>
    </clipPath>
  </defs>
  <g id="برگ1" transform="translate(-666 -531)" clip-path="url(#clip-path)">
    <g id="Group_23" data-name="Group 23" transform="translate(4263.813 -3581.734)" opacity="0.4">
      <g id="Group_22" data-name="Group 22">
        <path id="Path_2903" data-name="Path 2903" d="M1424.362,419.857a14.525,14.525,0,0,0-18.542.9C1405.867,420.57,1413.115,431.181,1424.362,419.857Z" transform="translate(-4712.794 3879.843)" fill="#21bc6a"/>
        <path id="Path_2904" data-name="Path 2904" d="M1410.054,387.983a10.257,10.257,0,0,0-12.844,1.72C1397.227,389.614,1403.006,396.628,1410.054,387.983Z" transform="translate(-4707.84 3897.369)" fill="#21bc6a"/>
        <path id="Path_2905" data-name="Path 2905" d="M1391.248,366.537a10.33,10.33,0,0,0-12.738,2.628C1378.531,369.072,1384.751,375.645,1391.248,366.537Z" transform="translate(-4697.08 3909.496)" fill="#21bc6a"/>
        <path id="Path_2906" data-name="Path 2906" d="M1449.095,399.493c.11,0-2.764-11.464,7.456-17.973C1456.7,381.443,1464.393,394.431,1449.095,399.493Z" transform="translate(-4737.527 3900.207)" fill="#21bc6a"/>
        <path id="Path_2907" data-name="Path 2907" d="M1426.837,372.746c.051,0-2.59-7.762,4.246-12.776C1431.129,359.927,1437.069,368.2,1426.837,372.746Z" transform="translate(-4724.623 3912.607)" fill="#21bc6a"/>
        <path id="Path_2908" data-name="Path 2908" d="M1403.681,349.487a13.277,13.277,0,0,1-2.548-13.791C1401.091,335.573,1410.007,340.023,1403.681,349.487Z" transform="translate(-4709.551 3926.575)" fill="#21bc6a"/>
        <path id="Path_2909" data-name="Path 2909" d="M1366.279,335.864a8.109,8.109,0,0,0-8.449-4.445C1357.9,331.44,1358.59,337.562,1366.279,335.864Z" transform="translate(-4685.18 3929.083)" fill="#21bc6a"/>
      </g>
      <path id="Path_2910" data-name="Path 2910" d="M1459.2,341.465c4.59-1.219,5.766-.306,5.859.149S1462.512,343.5,1459.2,341.465Z" transform="translate(-4743.177 3934.326)" fill="#606060"/>
      <path id="Path_2911" data-name="Path 2911" d="M1459.2,334.805c.259-4.743,1.49-5.583,1.953-5.52S1462.164,332.275,1459.2,334.805Z" transform="translate(-4743.177 3940.986)" fill="#606060"/>
      <path id="Path_2912" data-name="Path 2912" d="M1452.826,337.27c-4.433-1.7-4.849-3.142-4.671-3.567S1451.336,333.669,1452.826,337.27Z" transform="translate(-4736.803 3938.522)" fill="#606060"/>
      <path id="Path_2913" data-name="Path 2913" d="M1452.587,342.29c-3,3.685-4.488,3.639-4.828,3.325S1448.7,342.591,1452.587,342.29Z" transform="translate(-4736.563 3933.502)" fill="#606060"/>
      <path id="Path_2914" data-name="Path 2914" d="M1458.9,342.29c2.577,3.987,2.072,5.392,1.669,5.617S1457.987,346.077,1458.9,342.29Z" transform="translate(-4742.877 3933.502)" fill="#606060"/>
      <path id="Path_2915" data-name="Path 2915" d="M1374.031,103.593c-.047-.038-.085-.085-.132-.123C1374.053,103.517,1374.1,103.542,1374.031,103.593Z" transform="translate(-4694.427 4060.199)" fill="#e28150"/>
      <path id="Path_2916" data-name="Path 2916" d="M1415.522,197h0Z" transform="translate(-4718.353 4006.381)" fill="#e28150"/>
      <path id="Path_2917" data-name="Path 2917" d="M1335.654,35.187a64.114,64.114,0,0,1-5.282,17.387c.811-3.741.59-14.279,5.21-18.334a63.815,63.815,0,0,1,.331-11.731c-2.573,6.666-5.413,8.806-7.643,14.436.752-3.613,3.4-12.373,7.851-15.994a63.715,63.715,0,0,1,1.983-9.01c.425-1.444.93-2.866,1.465-4.28-4.356,7.112-8.067,8.67-11.719,14.538,1.142-4.335,6.432-13.549,12.377-16.19a63.2,63.2,0,0,1,6.467-11.889c-14.152,14.2-17.336,16.517-17.778,16.054,4.942-5.023,10.636-15.905,18.618-17.281a62.691,62.691,0,0,1,4.637-5.656c.234-.259.56-.323.722-.144a.6.6,0,0,1-.127.773h0c-.972,1.04-1.881,2.1-2.773,3.184,2.48,8.165-.025,20.525,2.467,24.652.293.246-8.666-9.154-2.514-24.592a62.407,62.407,0,0,0-7.507,11.731c3.46,6.917,3.252,18.232,6.008,21.654.229.123-8.382-6.619-6.581-20.457a63.339,63.339,0,0,0-3.125,8.105c-.539,1.749-.989,3.524-1.371,5.3,4.874,5.363,5.52,15.056,10.016,19-1.015-.331-6.594-1.724-10.118-18.529a63.093,63.093,0,0,0-1.274,14.67c4.611,4,9.133,11.188,11.039,14.041-4.093-3.94-8.275-4.836-11-13.162.089,1.906.259,3.821.518,5.7.229,1.732.556,3.452.938,5.15,4.564,2.972,9.443,9.048,11.791,10.984-4.212-3.053-7.948-3.448-11.668-10.436a59.637,59.637,0,0,0,3.214,9.693c4.942,2.25,10.19,8.1,13.2,9.057a21.384,21.384,0,0,1-12.627-7.757,61.154,61.154,0,0,0,4.467,8.1c.225.34.463.667.7,1,4.861,1.2,10.827,5.749,13.786,6.242a22.079,22.079,0,0,1-13.74-6.174,53.5,53.5,0,0,0,5.978,7.154c4.3.229,8.751,3.821,12.428,3.97-.344.093-3.116,1.495-11.846-3.4a54.342,54.342,0,0,0,6.068,5.121c3.528-.284,8.42,1.3,10.424,2.025-3.363-.352-5.52.7-9.727-1.533,1.125.79,2.289,1.52,3.469,2.225a34.927,34.927,0,0,1,9.086,4.989c-1.949-.879-7.715-1.953-9.388-5.031-.386-.234-.786-.45-1.168-.688,4.458,7.643,4.632,9.664,4.475,9.7-1.206-2.849-4.734-6.318-4.531-9.736a54.683,54.683,0,0,1-7.774-5.885c3.911,9.655,3.927,12.041,3.715,12.058-1.04-3.537-4.628-8.216-3.9-12.228-.535-.5-1.057-1.015-1.575-1.533l-.068-.042-.03-.025h.034a54.213,54.213,0,0,1-4.866-5.6,54.155,54.155,0,0,1,2.913,16.228c-.849-3.333-5.235-11.528-3.151-16.559-.514-.688-1.027-1.376-1.507-2.093a61.381,61.381,0,0,1-4.106-7.159,71,71,0,0,1,.1,15.145c-.25-3.189-2.5-11.137-.335-15.65q-.484-1.011-.93-2.047l-.051-.072a.372.372,0,0,0-.03-.042h.038a59.306,59.306,0,0,1-2.637-7.443,42.971,42.971,0,0,1-2.246,14.143c.335-2.972-.977-11.039,2.059-14.81a57.7,57.7,0,0,1-1.427-6.976C1335.9,37.917,1335.76,36.554,1335.654,35.187Z" transform="translate(-4667.93 4127.221)" fill="#94e250"/>
      <path id="Path_2918" data-name="Path 2918" d="M1448.8,182.82c.425,1.231-2.148,34.944,23.026,65.812C1472.458,250.7,1492.491,205.315,1448.8,182.82Z" transform="translate(-4747.525 4014.54)" fill="#f2ef23"/>
      <path id="Path_2919" data-name="Path 2919" d="M1476.147,254.521q-1.312-6.292-2.972-12.513-3.732-2.76-7.524-5.324,3.694,2.25,7.35,4.671c.038,0-2.166-8.772-3.07-12.738q-3.482-4.246-7.108-8.246,3.312,3.167,6.534,6.5c.106-.042-5.184-13.005-5.774-14.13-.06-.425-5.643-6.543-5.668-6.5q2.764,2.624,5.464,5.358c.051,0-3.129-8.653-3.482-8.857-.284-.234-3.235-4.811-3.248-4.8q1.032,1.053,2.059,2.123c.531.781,1.053,1.567,1.575,2.356q2.008,4.407,3.821,8.882.8,1.974,1.575,3.957,1.117-1.656,2.212-3.333-.994,2.259-2.03,4.484,2.123,5.333,4.029,10.755,1.032,2.93,2,5.885,1.274-2.174,2.518-4.382-1.006,2.845-2.076,5.639,1.1,4.556,2.025,9.129.425,2.259.8,4.522,1.44-3.55,2.768-7.184-1.138,4.114-2.42,8.139Q1475.872,251.715,1476.147,254.521Z" transform="translate(-4752.042 4005.84)" fill="#687a1c"/>
      <path id="Path_2920" data-name="Path 2920" d="M1397.851,306.983s-4.959-1.414-5.915-1.469.161-2,.777-2.662.149-1.044.573-1.388,1.2.374,1.384.178.123-.276.255-.361.611.081.722-.127-.25-1.015.191-1.333,1.032.586,1.643-.132,1.41-2.726,2.276-2.382S1403.214,302.478,1397.851,306.983Z" transform="translate(-4704.592 3948.686)" fill="#7278a5"/>
      <path id="Path_2921" data-name="Path 2921" d="M1407.391,301.834c-.391.641-.425,1.325-.119,1.52s.9-.166,1.274-.807.446-1.32.123-1.52S1407.782,301.2,1407.391,301.834Z" transform="translate(-4713.512 3946.554)" fill="#ffe6dc"/>
      <path id="Path_2922" data-name="Path 2922" d="M1403.637,307.191c.127.357.4.582.611.509s.28-.425.157-.781-.4-.586-.611-.509S1403.514,306.835,1403.637,307.191Z" transform="translate(-4711.503 3943.434)" fill="#ffe6dc"/>
      <path id="Path_2923" data-name="Path 2923" d="M1397.32,317.2c.62.17,1.244.31,1.873.459l.934.238a4.392,4.392,0,0,0,.989.2h0a.4.4,0,0,1-.042.807.4.4,0,0,1-.263-.115,1.961,1.961,0,0,0-.849-.425l-.917-.259a16.362,16.362,0,0,0-1.86-.425.246.246,0,0,1-.2-.289.251.251,0,0,1,.289-.2Z" transform="translate(-4707.708 3937.227)" fill="#434241"/>
      <path id="Path_2924" data-name="Path 2924" d="M1407.09,319.828a1.108,1.108,0,0,1,1.023-.2.055.055,0,0,1-.034.1h0a1.057,1.057,0,0,0-.968.115h-.021Z" transform="translate(-4713.525 3935.846)" fill="#e28150"/>
      <path id="Path_2925" data-name="Path 2925" d="M1406.78,320.1a1.117,1.117,0,0,1,1,.3.059.059,0,0,1,0,.081.064.064,0,0,1-.081,0h0a1.049,1.049,0,0,0-.909-.344h0Z" transform="translate(-4713.347 3935.559)" fill="#e28150"/>
      <path id="Path_2926" data-name="Path 2926" d="M1418.727,415.533a.348.348,0,0,1-.318.318.386.386,0,0,1-.391-.369c1.176.522-5.944-50.875-42.727-74.431a.4.4,0,0,1-.127-.518.352.352,0,0,1,.5-.093c37.071,23.735,44.251,75.526,43.062,75A.342.342,0,0,1,1418.727,415.533Z" transform="translate(-4695.127 3923.883)" fill="#19840d"/>
      <path id="Path_2927" data-name="Path 2927" d="M1424.626,424s-10.666,2.178-16.716.8C1407.948,424.815,1412.958,427.325,1424.626,424Z" transform="translate(-4713.997 3875.763)" fill="#fff"/>
      <path id="Path_2928" data-name="Path 2928" d="M1410.249,390.34s-7.256,2.216-11.579,1.541C1398.678,391.894,1402.368,393.406,1410.249,390.34Z" transform="translate(-4708.68 3895.131)" fill="#fff"/>
      <path id="Path_2929" data-name="Path 2929" d="M1391.464,368.5s-7.116,2.722-11.464,2.361C1380,370.857,1383.783,372.109,1391.464,368.5Z" transform="translate(-4697.937 3907.698)" fill="#fff"/>
      <path id="Path_2930" data-name="Path 2930" d="M1450.6,399.91c.025.051,6.492-9.086,6.717-16.211C1457.3,383.644,1458.54,390.421,1450.6,399.91Z" transform="translate(-4738.561 3898.953)" fill="#fff"/>
      <path id="Path_2931" data-name="Path 2931" d="M1428.11,373.013c0,.021,3.94-6.679,3.821-11.523C1431.906,361.46,1433.027,365.952,1428.11,373.013Z" transform="translate(-4725.62 3911.732)" fill="#fff"/>
      <path id="Path_2932" data-name="Path 2932" d="M1405.163,349.692c.038.025.119-8.105-2.314-12.432C1402.8,337.221,1405.923,340.741,1405.163,349.692Z" transform="translate(-4711.084 3925.675)" fill="#fff"/>
      <path id="Path_2933" data-name="Path 2933" d="M1366.383,336.028s-5.269-1.838-7.613-4.008C1358.778,332.045,1360.4,334.372,1366.383,336.028Z" transform="translate(-4685.721 3928.689)" fill="#fff"/>
      <path id="Path_2934" data-name="Path 2934" d="M1444.939,57.715c-4.331.692-8.778-1.8-11.165-5.418s-2.966-8.144-2.551-12.432,1.758-8.428,2.958-12.576,2.274-8.39,2.135-12.7c-.078-2.509-.645-5.15-2.4-6.976-2.135-2.216-5.582-2.743-8.661-2.318s-5.985,1.643-8.995,2.416c-4.391,1.125-9.419,1.172-13.079-1.456-3.348-2.4-4.915-6.7-4.712-10.755a16.136,16.136,0,0,1,4.764-10.589h30.951s10.369.116,10.757,7S1444.939,57.715,1444.939,57.715Z" transform="translate(-4708.553 4127.419)" fill="#43ff59"/>
      <path id="Path_2935" data-name="Path 2935" d="M1385.237,195.507c-2.369-4.056,1.7-9.26,6.343-10.362s9.447.324,14.194.778,10.36-.566,12.589-4.7c2.446-4.526-.425-10.4,1.7-15.088,2.8-6.194,12.114-6.448,16.5-11.685,4.637-5.529,1.847-13.919-2.165-19.9s-9.282-11.931-9.209-19.086c.051-5.075,2.853-9.7,5.889-13.815s6.462-8.1,8.1-12.9.985-10.816-3.091-13.944c-3.775-2.912-9.846-2.949-11.256-8.187a7.632,7.632,0,0,1,.242-4.464c1.758-5.083,6.607-7.929,9.188-12.363a14.024,14.024,0,0,0-5.167-19.26,11.525,11.525,0,0,1-6.025-10.437,14.306,14.306,0,0,0-.819-5.7,15.217,15.217,0,0,0-11.039-9.443c-5.375-1.123-11.413.607-16.2-2.038C1388.973-.407,1388.476-9.4,1392.4-15s10.763-8.449,17.408-10.4a114.829,114.829,0,0,1,58.309-1.614" transform="translate(-4742.233 4144.228)" fill="none" stroke="#bee3a5" stroke-miterlimit="10" stroke-width="1.59"/>
      <path id="Path_2936" data-name="Path 2936" d="M269.66-11.253c1.775-6.5,3.736-7.3,4.361-7.086S274.53-13.873,269.66-11.253Z" transform="translate(-3663.974 4136.083)" fill="#606060"/>
      <path id="Path_2937" data-name="Path 2937" d="M262.179-10.333c-5.634-3.7-5.8-5.808-5.375-6.335S261.19-15.772,262.179-10.333Z" transform="translate(-3656.493 4135.163)" fill="#606060"/>
      <path id="Path_2938" data-name="Path 2938" d="M259.184-1.754c-5.256,4.216-7.311,3.707-7.694,3.167S253.7-2.5,259.184-1.754Z" transform="translate(-3653.498 4126.584)" fill="#606060"/>
      <path id="Path_2939" data-name="Path 2939" d="M268.243-1.61c2.386,6.305,1.274,8.1.637,8.3S265.839,3.37,268.243-1.61Z" transform="translate(-3662.556 4126.439)" fill="#606060"/>
      <path id="Path_2940" data-name="Path 2940" d="M269.66-1.666c6.734-.318,8.093,1.3,8.067,1.957S273.655,2.156,269.66-1.666Z" transform="translate(-3663.974 4126.495)" fill="#606060"/>
      <path id="Path_2941" data-name="Path 2941" d="M-22.886,46.844s7.6-8.759,16.47-11.825c1.274-.425,2.993.667-.425,2.5s-15.345,6.462-13.477,12.525a32.812,32.812,0,0,0,3,2.862c1.248,1,1.35,1.6,3.066,2.284s1.669,1.486,2.734,1.639c0,0,2.9-11.2,9.71-15.434.747-.6,2.577.276.293,2.382-2.679,2.548-8.1,9.044-5.728,13.06.743,1.274,3.94,2.378,6.1,2.548C-1.7,56.759-2.506,49.078.424,49.7c.785.246,1.6.425,1.138,3.036-.624,7.8,6.258,5.193,9.766,9.108-.9-5.18,5.409-8.967-1.091-13.311-2.335-1.248-1.97-2-1.7-2.773,1.333-2.683,6.861,2.7,8.573,4.781,1.193-1.813,2.3-5.01,1.771-6.369-1.7-4.348-10.139-4.123-13.8-3.6-3.07.488-2.62-1.49-1.7-1.7,7.575-2.717,18.164,1.945,18.164,1.945.543-.93-.115-1.393.425-3.163s.115-2.225.106-3.821a33.016,33.016,0,0,0-.386-4.131c-3.6-5.21-14.614,1.274-18.177,2.807s-3.346-.5-2.229-1.214c7.889-5.057,19.48-5.579,19.48-5.579-.1-2.216-1.9-2.972-2.484-5.52a7.537,7.537,0,0,0-2.395-3.957C11.357,14.414,4.564,20.626,1.2,22.6s-4.246,2.123-3.312.284c3.227-5.1,14.5-8,14.5-8-.361-1.163-2.344-2.862-3.618-4.348a7.409,7.409,0,0,0-2.938-2.03A21.405,21.405,0,0,0-5.062,15.2C-3.079,10.839,4.3,7.939,4.3,7.939c-5.142-2.7-8.292.654-9,.539-3.872-2.768-9.341.964-9.341.964H-14.1s-6.314,1.966-6.543,6.721c-.344.624-4.951,1-6,6.726,0,0,6.849-4,11.5-2.853a21.435,21.435,0,0,0-11.995,4.412,7.375,7.375,0,0,0-.234,3.562c.365,1.915.5,4.543,1.172,5.52,0,0,9.269-7.048,15.285-6.428,2.021.425,1.354,1.019-2.28,2.429s-12.738,2.9-14.1,7.575a7.5,7.5,0,0,0,1.613,4.331C-24.045,43.516-24.563,45.405-22.886,46.844Z" transform="translate(-3493.325 4110.831)" fill="#ffa080"/>
      <path id="Path_2942" data-name="Path 2942" d="M-10.757,26.872a50.9,50.9,0,0,0-8.882,5.762.042.042,0,0,0,0,.059.042.042,0,0,0,.055,0,50.578,50.578,0,0,1,8.916-5.656,84.2,84.2,0,0,1,9.481-4.08l3.443,6.989h0A42.616,42.616,0,0,0-6.38,35.611a30.788,30.788,0,0,0-3.6,3.694,19.913,19.913,0,0,0-2.628,4.42.042.042,0,0,0,.025.038.038.038,0,0,0,.051,0,19.574,19.574,0,0,1,2.671-4.373,30.431,30.431,0,0,1,3.618-3.63A40.726,40.726,0,0,1-2.1,32.723a41.186,41.186,0,0,1,4.471-2.505h0l3.337,6.751A37.763,37.763,0,0,0,.894,41.9a17.587,17.587,0,0,0-1.911,2.9A5.879,5.879,0,0,0-1.8,48.162a.038.038,0,0,0,.038.038.038.038,0,0,0,.038-.038,5.656,5.656,0,0,1,.849-3.286,17.222,17.222,0,0,1,1.94-2.841,36.987,36.987,0,0,1,4.789-4.8L14.74,55.269a.025.025,0,0,0,.034,0,.03.03,0,0,0,0-.038L6.744,38.358H6.8A6.339,6.339,0,0,1,9.81,36.545a8.288,8.288,0,0,1,3.554-.149,13.706,13.706,0,0,1,3.443,1.061c.535.28,1.078.543,1.609.849l1.529.93A.039.039,0,1,0,20,39.181l-1.529-.994c-.522-.3-1.07-.577-1.6-.849A13.629,13.629,0,0,0,13.4,36.209a8.492,8.492,0,0,0-3.656.1,6.628,6.628,0,0,0-3.129,1.8L3.331,31.191a41.185,41.185,0,0,1,4.7-1.936,40.633,40.633,0,0,1,4.947-1.371,30.613,30.613,0,0,1,5.1-.59,19.68,19.68,0,0,1,5.1.611.042.042,0,0,0,.051-.03.038.038,0,0,0-.025-.047,19.748,19.748,0,0,0-5.1-.671,31,31,0,0,0-5.129.535A42.816,42.816,0,0,0,3.229,30.91l-3.1-6.437A32.66,32.66,0,0,1,4.38,21.34a36.514,36.514,0,0,1,4.7-2.518,32.922,32.922,0,0,1,5.006-1.809A33.335,33.335,0,0,1,19.334,16a.038.038,0,0,0,0-.076A34.269,34.269,0,0,0,8.991,18.644a36.914,36.914,0,0,0-4.755,2.48A32.765,32.765,0,0,0-.011,24.185l-3.4-7.1A18.257,18.257,0,0,1-.588,13.863a30.036,30.036,0,0,1,3.448-2.717,37.16,37.16,0,0,1,3.817-2.2c.65-.34,1.329-.62,1.991-.934l2.042-.828a.047.047,0,0,0,0-.055.042.042,0,0,0-.051-.021L8.6,7.91c-.667.31-1.354.582-2.008.917A35.708,35.708,0,0,0,2.749,11,29.9,29.9,0,0,0-.758,13.689a19.018,19.018,0,0,0-2.8,3.087L-6.69,10.144a16.245,16.245,0,0,1,2.548-3.32A12.98,12.98,0,0,1-2.5,5.414,10.976,10.976,0,0,1-.631,4.327a.038.038,0,0,0,.021-.021.038.038,0,0,0,0-.03A.038.038,0,0,0-.63,4.254a.038.038,0,0,0-.03,0A11.073,11.073,0,0,0-2.58,5.3a13.247,13.247,0,0,0-1.7,1.38A16.67,16.67,0,0,0-6.825,9.821L-13.483-4.114h0a.463.463,0,0,0-.268-.237.463.463,0,0,0-.356.024.467.467,0,0,0-.212.62L-8.125,8.866a16.742,16.742,0,0,0-4.624.526,16.177,16.177,0,0,0-4.492,1.889.042.042,0,0,0,0,.055.034.034,0,0,0,.025.011.034.034,0,0,0,.025-.012,15.829,15.829,0,0,1,4.484-1.754,16.2,16.2,0,0,1,4.734-.425l3.053,6.195a38.833,38.833,0,0,0-8.449,1.669A40.115,40.115,0,0,0-21.406,20.5a.038.038,0,0,0-.012.028.038.038,0,0,0,.012.028.034.034,0,0,0,.025.011.034.034,0,0,0,.025-.011A40.005,40.005,0,0,1-13.288,17.2a38.366,38.366,0,0,1,8.539-1.558l3.452,7a84.759,84.759,0,0,0-9.46,4.233Z" transform="translate(-3496.818 4117.31)" fill="#879a3b"/>
    </g>
  </g>
</svg>
