<svg xmlns="http://www.w3.org/2000/svg" width="23.159" height="23.159" viewBox="0 0 23.159 23.159">
  <path id="ثبت_گزارش" data-name="ثبت گزارش" d="M10.983,22A10.987,10.987,0,0,1,5.82,20.706L0,22l1.294-5.82A11.012,11.012,0,1,1,11,22ZM6.174,18.124l.8.427a8.543,8.543,0,0,0,4.012,1H11A8.556,8.556,0,1,0,2.445,11v0a8.534,8.534,0,0,0,1,4.024l.427.8L3.22,18.78l2.954-.657Zm3.746-.971v-2.41h2.411v2.41Zm0-4.82V5.1h2.411v7.23Z" transform="translate(0.659 0.5)" fill="#00a58f" stroke="rgba(0,0,0,0)" stroke-miterlimit="10" stroke-width="1"/>
</svg>
