<svg xmlns="http://www.w3.org/2000/svg" width="53" height="65" viewBox="0 0 53 65">
  <path id="پیگیری_گزارش" data-name="پیگیری گزارش" d="M46.376,65H6.624A6.57,6.57,0,0,1,0,58.5V6.5A6.57,6.57,0,0,1,6.624,0H29.812a3.3,3.3,0,0,1,2.343.954l19.873,19.5a3.209,3.209,0,0,1,.972,2.3V58.5A6.57,6.57,0,0,1,46.376,65ZM6.624,6.5v52H41.689l-8.5-8.339A13.255,13.255,0,0,1,26.5,52h-.146a13.388,13.388,0,0,1-12.921-9.677,13.049,13.049,0,0,1,6.231-14.853,13.6,13.6,0,0,1,6.686-1.758,13.433,13.433,0,0,1,9.535,3.907,12.962,12.962,0,0,1,1.988,15.944l8.5,8.345V24.1L28.441,6.5ZM26.5,32.5A6.5,6.5,0,1,0,33.124,39,6.57,6.57,0,0,0,26.5,32.5Z" fill="#f2a222"/>
</svg>
