<svg xmlns="http://www.w3.org/2000/svg" width="65.154" height="65.159" viewBox="0 0 65.154 65.159">
  <path id="ثبت_گزارش" data-name="ثبت گزارش" d="M31.953,64a31.957,31.957,0,0,1-15.018-3.764L0,64,3.767,47.067A32.032,32.032,0,1,1,32,64ZM17.964,52.722l2.323,1.243a24.848,24.848,0,0,0,11.671,2.923H32A24.889,24.889,0,1,0,7.115,32v.011a24.828,24.828,0,0,0,2.923,11.705l1.242,2.324-1.91,8.594,8.592-1.911Zm10.9-2.826V42.885h7.012V49.9Zm0-14.023V14.84h7.012V35.873Z" transform="translate(0.654 0.501)" fill="#f2a222" stroke="rgba(0,0,0,0)" stroke-miterlimit="10" stroke-width="1"/>
</svg>
